<svg id="Group_210" data-name="Group 210" xmlns="http://www.w3.org/2000/svg" width="47" height="47" viewBox="0 0 47 47">
  <rect id="Rectangle_662" data-name="Rectangle 662" width="47" height="47" rx="10" fill="#e1ecff"/>
  <path id="XMLID_3_" d="M57.852,21.006l-.891-4.714a.608.608,0,0,0-.911-.407l-4.109,2.477a.607.607,0,0,0,.356,1.126l1.6-.112c-1.532,2.059-3.839,2.9-6.484,3.121V9.01h1.321a1.281,1.281,0,1,0,0-2.05H47.418V5.108a2.787,2.787,0,1,0-3.074,0V6.96H43.023a1.281,1.281,0,1,0,0,2.05h1.321V22.5c-2.645-.217-4.952-1.062-6.484-3.121l1.6.112a.607.607,0,0,0,.356-1.126l-4.109-2.477a.608.608,0,0,0-.911.407L33.9,21.009a.608.608,0,0,0,1.077.485l.958-1.236c1.874,3.035,4.821,5.575,8.219,6.235l1.286,1.286a.608.608,0,0,0,.859,0l1.3-1.29c3.4-.659,6.346-3.2,8.22-6.235l.958,1.236A.608.608,0,0,0,57.855,21ZM45.881,2.05a.736.736,0,1,1-.737.736A.736.736,0,0,1,45.881,2.05Z" transform="translate(-21.094 8.123)" fill="#1a6eff"/>
</svg>
