<svg xmlns="http://www.w3.org/2000/svg" width="53.286" height="61.267" viewBox="0 0 53.286 61.267">
  <g id="network" transform="translate(-0.5 0.001)">
    <path id="Path_381" data-name="Path 381" d="M169.664,188.793v4.164a1.522,1.522,0,0,0,1.52,1.52h9.761a1.522,1.522,0,0,0,1.52-1.52v-4.164a4.509,4.509,0,0,0-3.086-4.273,4.263,4.263,0,1,0-6.629,0A4.51,4.51,0,0,0,169.664,188.793Zm6.4-9.4a2.447,2.447,0,1,1-2.447,2.446A2.449,2.449,0,0,1,176.064,179.4Zm-4.585,9.4a2.69,2.69,0,0,1,2.687-2.686h3.8a2.689,2.689,0,0,1,2.686,2.686v3.868H179.7v-4a.908.908,0,1,0-1.816,0v4h-3.643v-4a.908.908,0,1,0-1.815,0v4h-.948Zm0,0" transform="translate(-148.922 -156.333)" fill="#0577cb"/>
    <path id="Path_382" data-name="Path 382" d="M169.664,10.5v2.813a1.522,1.522,0,0,0,1.52,1.52h9.761a1.522,1.522,0,0,0,1.52-1.52V10.5a4.51,4.51,0,0,0-3.086-4.273,4.256,4.256,0,0,0-.7-6.04.908.908,0,0,0-1.116,1.433,2.447,2.447,0,1,1-3.089.072A.908.908,0,0,0,173.3.315a4.256,4.256,0,0,0-.546,5.917A4.509,4.509,0,0,0,169.664,10.5Zm1.815,0a2.69,2.69,0,0,1,2.687-2.686h3.8A2.689,2.689,0,0,1,180.65,10.5v2.517H179.7V10.375a.908.908,0,0,0-1.816,0v2.646h-3.643V10.375a.908.908,0,1,0-1.815,0v2.646h-.948Zm0,0" transform="translate(-148.922 0)" fill="#0577cb"/>
    <path id="Path_383" data-name="Path 383" d="M338.828,105.848v2.813a1.522,1.522,0,0,0,1.52,1.52h9.761a1.522,1.522,0,0,0,1.52-1.52v-2.813a4.509,4.509,0,0,0-3.086-4.273,4.263,4.263,0,1,0-6.629,0A4.509,4.509,0,0,0,338.828,105.848Zm6.4-9.4a2.447,2.447,0,1,1-2.447,2.447A2.449,2.449,0,0,1,345.229,96.452Zm-4.585,9.4a2.689,2.689,0,0,1,2.686-2.686h3.8a2.689,2.689,0,0,1,2.686,2.686v2.517h-.948v-2.646a.908.908,0,0,0-1.816,0v2.646h-3.643v-2.646a.908.908,0,0,0-1.816,0v2.646h-.948v-2.517Zm0,0" transform="translate(-297.843 -83.313)" fill="#0577cb"/>
    <path id="Path_384" data-name="Path 384" d="M.5,105.848v2.813a1.522,1.522,0,0,0,1.52,1.52h9.761a1.522,1.522,0,0,0,1.52-1.52v-2.813a4.509,4.509,0,0,0-3.086-4.273,4.263,4.263,0,1,0-6.629,0A4.509,4.509,0,0,0,.5,105.848Zm6.4-9.4A2.447,2.447,0,1,1,4.454,98.9,2.45,2.45,0,0,1,6.9,96.452Zm-4.585,9.4A2.69,2.69,0,0,1,5,103.162H8.8a2.689,2.689,0,0,1,2.686,2.686v2.517h-.947v-2.646a.908.908,0,0,0-1.816,0v2.646H5.079v-2.646a.908.908,0,1,0-1.815,0v2.646H2.315Zm0,0" transform="translate(0 -83.313)" fill="#0577cb"/>
    <path id="Path_385" data-name="Path 385" d="M338.828,285.184a1.522,1.522,0,0,0,1.52,1.521h9.761a1.522,1.522,0,0,0,1.52-1.521v-2.812a4.509,4.509,0,0,0-3.086-4.273,4.263,4.263,0,1,0-6.629,0,4.51,4.51,0,0,0-3.086,4.273Zm6.4-12.208a2.447,2.447,0,1,1-2.447,2.447A2.449,2.449,0,0,1,345.229,272.976Zm-4.585,9.4a2.689,2.689,0,0,1,2.686-2.686h3.8a2.689,2.689,0,0,1,2.686,2.686v2.517h-.948v-2.646a.908.908,0,0,0-1.816,0v2.646h-3.643v-2.646a.908.908,0,0,0-1.816,0v2.646h-.948v-2.517Zm0,0" transform="translate(-297.843 -238.713)" fill="#0577cb"/>
    <path id="Path_386" data-name="Path 386" d="M.5,285.184A1.522,1.522,0,0,0,2.02,286.7h9.761a1.522,1.522,0,0,0,1.52-1.521v-2.812a4.509,4.509,0,0,0-3.086-4.273,4.263,4.263,0,1,0-6.629,0A4.509,4.509,0,0,0,.5,282.371Zm6.4-12.208a2.447,2.447,0,1,1-2.447,2.447A2.45,2.45,0,0,1,6.9,272.976Zm-4.585,9.4A2.69,2.69,0,0,1,5,279.685H8.8a2.689,2.689,0,0,1,2.686,2.686v2.517h-.947v-2.646a.908.908,0,0,0-1.816,0v2.646H5.079v-2.646a.908.908,0,0,0-1.815,0v2.646H2.315Zm0,0" transform="translate(0 -238.713)" fill="#0577cb"/>
    <path id="Path_387" data-name="Path 387" d="M113.919,150.4a.908.908,0,0,0,1.24.332l1.642-.948a12.207,12.207,0,0,0,9.174,5.3v1.892a.908.908,0,0,0,1.816,0v-1.894a12.218,12.218,0,0,0,9.177-5.3l1.638.946a.908.908,0,0,0,.908-1.572l-1.636-.944a12.163,12.163,0,0,0,.992-3.013.908.908,0,0,0-1.784-.338,10.388,10.388,0,1,1-1.221-7.167l.013.024.009.014a10.315,10.315,0,0,1,1.2,3.231.908.908,0,1,0,1.784-.338,12.145,12.145,0,0,0-.992-3.013l1.636-.944a.908.908,0,0,0-.908-1.572l-1.638.946a12.217,12.217,0,0,0-9.177-5.3v-1.895a.908.908,0,0,0-1.816,0v1.892a12.21,12.21,0,0,0-9.174,5.3l-1.642-.948a.908.908,0,0,0-.908,1.572l1.639.947a12.187,12.187,0,0,0,0,10.6l-1.639.947A.907.907,0,0,0,113.919,150.4Zm0,0" transform="translate(-99.74 -112.639)" fill="#0577cb"/>
    <path id="Path_388" data-name="Path 388" d="M169.664,393.309v2.812a1.522,1.522,0,0,0,1.52,1.521h9.761a1.522,1.522,0,0,0,1.52-1.521v-2.812a4.51,4.51,0,0,0-3.086-4.273,4.263,4.263,0,1,0-6.629,0A4.51,4.51,0,0,0,169.664,393.309Zm6.4-9.4a2.447,2.447,0,1,1-2.447,2.447A2.45,2.45,0,0,1,176.064,383.913Zm-4.585,9.4a2.69,2.69,0,0,1,2.687-2.687h3.8a2.69,2.69,0,0,1,2.686,2.687v2.517H179.7V393.18a.908.908,0,1,0-1.816,0v2.646h-3.643V393.18a.908.908,0,1,0-1.815,0v2.646h-.948Zm0,0" transform="translate(-148.922 -336.375)" fill="#0577cb"/>
  </g>
</svg>
