<svg id="Group_208" data-name="Group 208" xmlns="http://www.w3.org/2000/svg" width="46" height="47" viewBox="0 0 46 47">
  <rect id="Rectangle_660" data-name="Rectangle 660" width="46" height="47" rx="10" fill="#e1ecff"/>
  <g id="cargo-ship" transform="translate(10.983 13.595)">
    <path id="Path_197" data-name="Path 197" d="M27.57,256.922a2.6,2.6,0,0,1-1.47-.409,3.773,3.773,0,0,0-3.841,0,2.84,2.84,0,0,1-2.937,0,3.772,3.772,0,0,0-3.84,0,2.838,2.838,0,0,1-2.936,0,3.5,3.5,0,0,0-1.92-.525,3.5,3.5,0,0,0-1.919.525,2.592,2.592,0,0,1-1.468.409,2.6,2.6,0,0,1-1.467-.409,3.5,3.5,0,0,0-1.919-.526,3.5,3.5,0,0,0-1.919.525,2.592,2.592,0,0,1-1.468.409.467.467,0,0,0,0,.935,3.5,3.5,0,0,0,1.919-.526,2.6,2.6,0,0,1,1.467-.409,2.6,2.6,0,0,1,1.468.41,3.5,3.5,0,0,0,1.919.525,3.5,3.5,0,0,0,1.919-.526,2.6,2.6,0,0,1,1.468-.409,2.6,2.6,0,0,1,1.468.41,3.772,3.772,0,0,0,3.84,0,2.838,2.838,0,0,1,2.936,0,3.772,3.772,0,0,0,3.84,0,2.843,2.843,0,0,1,2.939,0,3.5,3.5,0,0,0,1.92.525.467.467,0,0,0,0-.935Zm0,0" transform="translate(0 -241.034)" fill="#1a6eff"/>
    <path id="Path_198" data-name="Path 198" d="M0,14.486a.467.467,0,0,0,.467.467,3.473,3.473,0,0,0,1.916-.525,2.616,2.616,0,0,1,1.472-.41,2.616,2.616,0,0,1,1.474.414,3.492,3.492,0,0,0,1.91.521,3.516,3.516,0,0,0,1.923-.526,2.571,2.571,0,0,1,1.465-.408,2.621,2.621,0,0,1,1.478.414,3.769,3.769,0,0,0,3.832-.005A2.571,2.571,0,0,1,17.4,14.02a2.621,2.621,0,0,1,1.478.414,3.768,3.768,0,0,0,3.832,0,2.618,2.618,0,0,1,1.47-.41,2.107,2.107,0,0,1,.289.013,2.594,2.594,0,0,1,1.177.4,3.507,3.507,0,0,0,1.921.525.468.468,0,1,0,0-.935,2.6,2.6,0,0,1-1.47-.409,4.1,4.1,0,0,0-.893-.392l2.781-5.531a.467.467,0,0,0-.418-.677H25.234V.467A.467.467,0,0,0,24.767,0H7.944a.467.467,0,0,0-.467.467V8.411H6.542V1.4A.467.467,0,0,0,6.075.935H2.336a.467.467,0,0,0-.462.4L1,7.009H.467A.467.467,0,0,0,0,7.477v4.206a.466.466,0,0,0,.067.241l1.2,1.992a2.7,2.7,0,0,1-.794.1.467.467,0,0,0-.468.47ZM21.963,7.009a.468.468,0,0,0-.28.094L19.938,8.411h-.312V6.542H24.3v.467Zm-7.944,1.4V6.542h4.673V8.411ZM8.411,3.738h4.673v1.87H8.411ZM24.3,5.608H19.626V3.738H24.3Zm-5.608,0H14.019V3.738h4.673ZM24.3,2.8H19.626V.935H24.3Zm-5.608,0H14.019V.935h4.673ZM8.411.935h4.673V2.8H8.411Zm0,5.608h4.673V8.411H8.411ZM2.737,1.869h2.87V7.751l-.6-.6a.468.468,0,0,0-.33-.137H1.947ZM.935,7.944H4.479L5.744,9.209a.466.466,0,0,0,.33.137h14.02a.467.467,0,0,0,.28-.093l1.744-1.309h4.694l-2.584,5.14h-.047a3.515,3.515,0,0,0-1.921.525,2.84,2.84,0,0,1-2.944,0,3.768,3.768,0,0,0-3.832,0,2.84,2.84,0,0,1-2.944,0,3.5,3.5,0,0,0-1.914-.521,3.471,3.471,0,0,0-1.916.525,2.618,2.618,0,0,1-1.472.409,2.613,2.613,0,0,1-1.474-.413,3.5,3.5,0,0,0-1.91-.521,2.783,2.783,0,0,0-.322.012.868.868,0,0,0-.1.01c-.065.006-.129.013-.19.022l-.1.018c-.053.009-.105.019-.155.031l-.1.024-.14.04-.085.027c-.047.016-.09.033-.133.05-.023.009-.047.017-.068.027-.052.022-.1.044-.151.068l-.032.015c-.058.029-.115.057-.17.086L.935,11.553Zm0,0" fill="#1a6eff"/>
    <path id="Path_199" data-name="Path 199" d="M56.935,40h-.467a.468.468,0,0,0,0,.935h.467a.468.468,0,1,0,0-.935Zm0,0" transform="translate(-52.729 -37.664)" fill="#1a6eff"/>
    <path id="Path_200" data-name="Path 200" d="M64.467,176.935h.467a.467.467,0,0,0,0-.935h-.467a.467.467,0,1,0,0,.935Zm0,0" transform="translate(-60.262 -165.719)" fill="#1a6eff"/>
    <path id="Path_201" data-name="Path 201" d="M104.467,176.935h.467a.467.467,0,0,0,0-.935h-.467a.467.467,0,0,0,0,.935Zm0,0" transform="translate(-97.925 -165.719)" fill="#1a6eff"/>
    <path id="Path_202" data-name="Path 202" d="M144.467,176.935h.467a.467.467,0,0,0,0-.935h-.467a.467.467,0,1,0,0,.935Zm0,0" transform="translate(-135.589 -165.719)" fill="#1a6eff"/>
    <path id="Path_203" data-name="Path 203" d="M184.467,176.935h.467a.467.467,0,0,0,0-.935h-.467a.467.467,0,0,0,0,.935Zm0,0" transform="translate(-173.252 -165.719)" fill="#1a6eff"/>
    <path id="Path_204" data-name="Path 204" d="M224.467,176.935h.467a.467.467,0,0,0,0-.935h-.467a.467.467,0,1,0,0,.935Zm0,0" transform="translate(-210.916 -165.719)" fill="#1a6eff"/>
    <path id="Path_205" data-name="Path 205" d="M264.467,176.935h.467a.467.467,0,0,0,0-.935h-.467a.467.467,0,1,0,0,.935Zm0,0" transform="translate(-248.579 -165.719)" fill="#1a6eff"/>
    <path id="Path_206" data-name="Path 206" d="M304.467,176.935h.467a.467.467,0,0,0,0-.935h-.467a.467.467,0,1,0,0,.935Zm0,0" transform="translate(-286.243 -165.719)" fill="#1a6eff"/>
    <path id="Path_207" data-name="Path 207" d="M344.467,176.935h.467a.467.467,0,1,0,0-.935h-.467a.467.467,0,0,0,0,.935Zm0,0" transform="translate(-323.906 -165.719)" fill="#1a6eff"/>
    <path id="Path_208" data-name="Path 208" d="M384.467,176.935h.467a.467.467,0,0,0,0-.935h-.467a.467.467,0,1,0,0,.935Zm0,0" transform="translate(-361.57 -165.719)" fill="#1a6eff"/>
  </g>
</svg>
