<svg xmlns="http://www.w3.org/2000/svg" xmlns:xlink="http://www.w3.org/1999/xlink" width="426" height="454" viewBox="0 0 426 454">
  <defs>
    <filter id="stock-photo-happy-young-fashion-man-walking-with-his-hand-in-pocket-on-studio-background-289775255" x="0" y="0" width="426" height="454" filterUnits="userSpaceOnUse">
      <feOffset input="SourceAlpha"/>
      <feGaussianBlur stdDeviation="8.5" result="blur"/>
      <feFlood flood-opacity="0.161"/>
      <feComposite operator="in" in2="blur"/>
      <feComposite in="SourceGraphic"/>
    </filter>
  </defs>
  <g id="Group_444" data-name="Group 444" transform="translate(-755.5 -2306.5)">
    <g transform="matrix(1, 0, 0, 1, 755.5, 2306.5)" filter="url(#stock-photo-happy-young-fashion-man-walking-with-his-hand-in-pocket-on-studio-background-289775255)">
      <rect id="stock-photo-happy-young-fashion-man-walking-with-his-hand-in-pocket-on-studio-background-289775255-2" data-name="stock-photo-happy-young-fashion-man-walking-with-his-hand-in-pocket-on-studio-background-289775255" width="375" height="403" rx="27" transform="translate(25.5 25.5)" fill="#ebebeb"/>
    </g>
    <g id="china" transform="translate(797 2378.608)">
      <g id="Group_337" data-name="Group 337" transform="translate(0 31.874)">
        <path id="Path_219" data-name="Path 219" d="M187.093,131.151l-49.791-16.6a5.792,5.792,0,0,1-1.791-.974l-27.176-21.74a5.8,5.8,0,0,1-2.065-3.394L102.047,67.33a5.8,5.8,0,0,0-7.527-4.368L50.438,77.657a5.805,5.805,0,0,0-3.8,4.1L42.435,98.587a5.8,5.8,0,0,1-4.81,4.338L4.983,107.587A5.805,5.805,0,0,0,0,113.334v11.377a5.806,5.806,0,0,0,.613,2.6l10.628,21.257a5.8,5.8,0,0,1,.613,2.6v25.631a5.807,5.807,0,0,0,1.982,4.368l43.792,38.319a5.8,5.8,0,0,0,3.822,1.436h25.7a5.8,5.8,0,0,1,3.22.975l14.318,9.545a5.8,5.8,0,0,0,4.358.863l20.336-4.067a5.8,5.8,0,0,1,6.943,5.691v14.224a5.8,5.8,0,0,1-1.7,4.1l-.553.553a5.8,5.8,0,0,0-.428,7.73l17.773,22.216a5.8,5.8,0,0,0,6.688,1.763l23.217-9.287a5.806,5.806,0,0,1,4.751.2l30.781,15.39a5.8,5.8,0,0,0,4.952.113l48.937-21.749a5.8,5.8,0,0,0,2.834-2.708l21.644-43.29a5.805,5.805,0,0,0,.243-4.633l-16-42.678a5.8,5.8,0,0,1,.243-4.633l2.924-5.848a5.8,5.8,0,0,0-1.087-6.7L271.445,148.6a5.8,5.8,0,0,1,.621-8.747L286.393,129.1a5.8,5.8,0,0,1,7.587.539l4.191,4.191a5.8,5.8,0,0,0,8.208,0l28.5-28.5a5.8,5.8,0,0,0,1.087-6.7l-2.89-5.781a5.8,5.8,0,0,1-.2-4.751l7.7-19.255a5.8,5.8,0,0,0-5.389-7.96H322.46a5.8,5.8,0,0,1-4.1-1.7L292.744,33.575a5.8,5.8,0,0,0-5.512-1.527l-17.727,4.432a5.807,5.807,0,0,0-3.928,3.344L251.416,72.868a5.8,5.8,0,0,0,3.5,7.792h0a5.8,5.8,0,0,1,1.206,10.449l-64.153,39.479A5.8,5.8,0,0,1,187.093,131.151Z" transform="translate(0 -31.874)" fill="#ff4b4b"/>
        <path id="Path_220" data-name="Path 220" d="M221.61,339.868v-6.7a2.161,2.161,0,0,1,2.161-2.161h13.46a2.161,2.161,0,0,1,2.161,2.161v2.209a2.161,2.161,0,0,1-1.477,2.05l-13.46,4.487A2.161,2.161,0,0,1,221.61,339.868Z" transform="translate(-20.093 -58.996)" fill="#ff4b4b"/>
      </g>
      <g id="Group_338" data-name="Group 338" transform="translate(148.173 152.846)">
        <path id="Path_221" data-name="Path 221" d="M196.666,186.986l6.253,18.75,19.764.153a2.663,2.663,0,0,1,1.562,4.805l-15.9,11.741,5.962,18.844a2.664,2.664,0,0,1-4.088,2.97l-16.08-11.493-16.08,11.493a2.664,2.664,0,0,1-4.088-2.97l5.962-18.844-15.9-11.741a2.663,2.663,0,0,1,1.562-4.805l19.764-.153,6.253-18.75A2.664,2.664,0,0,1,196.666,186.986Z" transform="translate(-162.947 -166.744)" fill="#ffcf65"/>
        <path id="Path_222" data-name="Path 222" d="M277.974,192.207l4.484,6.115,7.237-2.262a1.022,1.022,0,0,1,1.134,1.572l-4.43,6.154,4.388,6.183a1.021,1.021,0,0,1-1.145,1.564l-7.221-2.312L277.9,215.3a1.022,1.022,0,0,1-1.842-.605l-.033-7.582-7.185-2.423a1.021,1.021,0,0,1,.007-1.938l7.2-2.374.085-7.582A1.021,1.021,0,0,1,277.974,192.207Z" transform="translate(-172.485 -167.345)" fill="#ffcf65"/>
        <path id="Path_223" data-name="Path 223" d="M248.819,171.544l7.537.819,3.216-6.867a1.022,1.022,0,0,1,1.925.224l1.55,7.422,7.524.936a1.021,1.021,0,0,1,.382,1.9l-6.58,3.768,1.435,7.445a1.021,1.021,0,0,1-1.689.95l-5.617-5.094-6.638,3.665a1.021,1.021,0,0,1-1.425-1.313l3.109-6.915-5.537-5.18A1.02,1.02,0,0,1,248.819,171.544Z" transform="translate(-170.63 -164.907)" fill="#ffcf65"/>
        <path id="Path_224" data-name="Path 224" d="M260.735,252.97l-4.484,6.115-7.237-2.262a1.022,1.022,0,0,0-1.134,1.572l4.43,6.154-4.388,6.183a1.021,1.021,0,0,0,1.145,1.564l7.221-2.312,4.524,6.084a1.022,1.022,0,0,0,1.842-.605l.033-7.582,7.185-2.422a1.021,1.021,0,0,0-.007-1.938l-7.2-2.374-.085-7.581A1.021,1.021,0,0,0,260.735,252.97Z" transform="translate(-170.63 -172.854)" fill="#ffcf65"/>
        <path id="Path_225" data-name="Path 225" d="M289.8,233.515l-7.537.819-3.216-6.867a1.022,1.022,0,0,0-1.925.224l-1.55,7.422-7.524.936a1.021,1.021,0,0,0-.382,1.9l6.58,3.768-1.435,7.445a1.021,1.021,0,0,0,1.689.95l5.617-5.094,6.638,3.665a1.021,1.021,0,0,0,1.425-1.313l-3.109-6.915,5.537-5.18A1.021,1.021,0,0,0,289.8,233.515Z" transform="translate(-172.395 -170.526)" fill="#ffcf65"/>
      </g>
    </g>
  </g>
</svg>
