<svg xmlns="http://www.w3.org/2000/svg" width="292" height="322" viewBox="0 0 292 322">
  <g id="Group_445" data-name="Group 445" transform="translate(-814 -1996)">
    <g id="china" transform="translate(814 2004.126)">
      <g id="Group_337" data-name="Group 337" transform="translate(0 31.874)">
        <path id="Path_219" data-name="Path 219" d="M160.212,116.887l-42.637-14.215a4.96,4.96,0,0,1-1.534-.834L92.77,83.222A4.967,4.967,0,0,1,91,80.315l-3.616-18.08A4.967,4.967,0,0,0,80.94,58.5L43.191,71.079a4.971,4.971,0,0,0-3.254,3.511L36.338,89a4.967,4.967,0,0,1-4.119,3.715L4.267,96.709A4.971,4.971,0,0,0,0,101.63v9.742A4.972,4.972,0,0,0,.525,113.6l9.1,18.2a4.967,4.967,0,0,1,.525,2.226v21.948a4.972,4.972,0,0,0,1.7,3.74l37.5,32.814a4.967,4.967,0,0,0,3.273,1.23H74.628a4.968,4.968,0,0,1,2.758.836l12.26,8.173a4.967,4.967,0,0,0,3.732.739l17.414-3.483a4.967,4.967,0,0,1,5.945,4.873v12.18a4.967,4.967,0,0,1-1.456,3.511l-.474.474a4.967,4.967,0,0,0-.367,6.619l15.219,19.024a4.967,4.967,0,0,0,5.727,1.51l19.881-7.953a4.972,4.972,0,0,1,4.068.171L185.7,253.613a4.967,4.967,0,0,0,4.24.1l41.906-18.624a4.967,4.967,0,0,0,2.427-2.319L252.8,195.7a4.971,4.971,0,0,0,.208-3.967l-13.7-36.546a4.967,4.967,0,0,1,.208-3.967l2.5-5.008a4.967,4.967,0,0,0-.931-5.737l-8.648-8.642a4.967,4.967,0,0,1,.532-7.49l12.269-9.208a4.967,4.967,0,0,1,6.5.462l3.589,3.589a4.967,4.967,0,0,0,7.029,0l24.405-24.405a4.967,4.967,0,0,0,.931-5.737l-2.475-4.95a4.967,4.967,0,0,1-.171-4.068l6.594-16.488a4.967,4.967,0,0,0-4.615-6.816h-10.9a4.967,4.967,0,0,1-3.511-1.456L250.683,33.331a4.967,4.967,0,0,0-4.72-1.308l-15.18,3.8a4.973,4.973,0,0,0-3.364,2.864l-12.126,28.3a4.967,4.967,0,0,0,3,6.672h0a4.967,4.967,0,0,1,1.033,8.948L164.387,116.4A4.967,4.967,0,0,1,160.212,116.887Z" transform="translate(0 -31.874)" fill="#ff4b4b"/>
        <path id="Path_220" data-name="Path 220" d="M221.61,338.595v-5.737a1.851,1.851,0,0,1,1.851-1.851h11.526a1.851,1.851,0,0,1,1.85,1.851v1.892a1.851,1.851,0,0,1-1.265,1.756l-11.526,3.842a1.85,1.85,0,0,1-2.436-1.752Z" transform="translate(-49.047 -98.078)" fill="#ff4b4b"/>
      </g>
      <g id="Group_338" data-name="Group 338" transform="translate(126.888 135.466)">
        <path id="Path_221" data-name="Path 221" d="M191.822,186.724l5.355,16.056,16.924.131a2.28,2.28,0,0,1,1.338,4.115L201.823,217.08l5.105,16.137a2.281,2.281,0,0,1-3.5,2.543l-13.77-9.842-13.77,9.842a2.281,2.281,0,0,1-3.5-2.543l5.105-16.137-13.616-10.054a2.28,2.28,0,0,1,1.338-4.115l16.924-.131,5.355-16.056a2.281,2.281,0,0,1,4.328,0Z" transform="translate(-162.952 -169.392)" fill="#ffcf65"/>
        <path id="Path_222" data-name="Path 222" d="M276.562,192.147l3.84,5.236,6.2-1.937a.875.875,0,0,1,.971,1.346l-3.793,5.27,3.758,5.295a.874.874,0,0,1-.98,1.339l-6.184-1.98-3.871,5.206a.875.875,0,0,1-1.577-.518l-.028-6.493-6.153-2.075a.874.874,0,0,1,.006-1.66l6.165-2.033.073-6.493a.874.874,0,0,1,1.577-.5Z" transform="translate(-186.233 -170.859)" fill="#ffcf65"/>
        <path id="Path_223" data-name="Path 223" d="M248.656,170.591l6.454.7,2.754-5.88a.875.875,0,0,1,1.648.192l1.327,6.356,6.443.8a.874.874,0,0,1,.327,1.627l-5.635,3.227,1.229,6.375a.874.874,0,0,1-1.446.813l-4.81-4.362-5.684,3.138a.874.874,0,0,1-1.22-1.124l2.662-5.921-4.741-4.436a.873.873,0,0,1,.692-1.507Z" transform="translate(-181.706 -164.909)" fill="#ffcf65"/>
        <path id="Path_224" data-name="Path 224" d="M258.86,252.91l-3.84,5.236-6.2-1.937a.875.875,0,0,0-.971,1.346l3.794,5.27-3.758,5.295a.874.874,0,0,0,.98,1.339l6.183-1.98,3.874,5.21a.875.875,0,0,0,1.577-.518l.028-6.493,6.153-2.074a.874.874,0,0,0-.006-1.66l-6.166-2.033-.073-6.492a.874.874,0,0,0-1.58-.51Z" transform="translate(-181.706 -184.306)" fill="#ffcf65"/>
        <path id="Path_225" data-name="Path 225" d="M286.546,232.562l-6.454.7-2.754-5.88a.875.875,0,0,0-1.648.192l-1.327,6.356-6.443.8a.874.874,0,0,0-.327,1.627l5.635,3.227L272,245.961a.874.874,0,0,0,1.446.814l4.81-4.362,5.684,3.138a.874.874,0,0,0,1.22-1.124L282.5,238.5l4.741-4.436a.874.874,0,0,0-.692-1.507Z" transform="translate(-186.014 -178.624)" fill="#ffcf65"/>
      </g>
    </g>
    <rect id="Rectangle_432" data-name="Rectangle 432" width="287" height="322" transform="translate(817 1996)" fill="none"/>
  </g>
</svg>
