<svg xmlns="http://www.w3.org/2000/svg" width="243.356" height="105.479" viewBox="0 0 243.356 105.479">
  <g id="Conecta-Logo-01" transform="translate(-308.67 -209)">
    <path id="Path_339" data-name="Path 339" d="M336.575,290.9l12.764-26.279L334.023,239.69,308.67,278.582Z" transform="translate(0 -25.331)" fill="#25377b"/>
    <path id="Path_340" data-name="Path 340" d="M563.154,244.419l23.062-20.172L549.342,209l-7.792,30.821Z" transform="translate(-192.212)" fill="#c02026"/>
    <path id="Path_341" data-name="Path 341" d="M388.882,555.687l-3.87,26.712L353.73,559.138l19.922-23.488Z" transform="translate(-37.191 -269.606)" fill="#c02026"/>
    <path id="Path_342" data-name="Path 342" d="M745.945,652.157c-96.425,4.986-145.625,27.58-145.625,27.58l2.375-28.2Z" transform="translate(-240.718 -365.258)" fill="#25377b"/>
    <path id="Path_343" data-name="Path 343" d="M555,483.784c0-6.552,4.961-10.974,11.484-10.974a9.788,9.788,0,0,1,9.255,5.7l-4.715,2.225a5.088,5.088,0,0,0-4.54-3.084,6.144,6.144,0,0,0,0,12.28,5.075,5.075,0,0,0,4.54-3.088l4.715,2.228a9.854,9.854,0,0,1-9.255,5.693C559.965,494.758,555,490.307,555,483.784Z" transform="translate(-203.313 -217.74)"/>
    <path id="Path_344" data-name="Path 344" d="M681.13,483.784c0-6.461,4.867-10.974,11.351-10.974s11.328,4.516,11.328,10.974-4.836,10.974-11.325,10.974S681.13,490.24,681.13,483.784Zm17.114,0c0-3.465-2.258-6.138-5.763-6.138-3.531,0-5.789,2.674-5.789,6.138,0,3.437,2.258,6.142,5.789,6.142,3.5,0,5.761-2.7,5.761-6.142Z" transform="translate(-307.416 -217.74)"/>
    <path id="Path_345" data-name="Path 345" d="M841.362,496.028l-8.969-12.278v12.28H826.92V474.81h5.63l8.588,11.676V474.81h5.5v21.218Z" transform="translate(-427.747 -219.391)"/>
    <path id="Path_346" data-name="Path 346" d="M961.79,496.028V474.81h15.555v4.773H967.261v3.307h9.86v4.771h-9.86v3.6h10.083v4.771Z" transform="translate(-539.064 -219.391)"/>
    <path id="Path_347" data-name="Path 347" d="M1062.94,483.784c0-6.552,4.961-10.974,11.484-10.974a9.789,9.789,0,0,1,9.256,5.695l-4.715,2.225a5.088,5.088,0,0,0-4.54-3.084,6.144,6.144,0,0,0,0,12.28,5.075,5.075,0,0,0,4.54-3.088l4.715,2.228a9.855,9.855,0,0,1-9.256,5.693C1067.9,494.758,1062.94,490.307,1062.94,483.784Z" transform="translate(-622.55 -217.74)"/>
    <path id="Path_348" data-name="Path 348" d="M1194.26,496.028V479.583h-5.95V474.81h17.336v4.773h-5.916v16.445Z" transform="translate(-726.026 -219.391)"/>
    <path id="Path_349" data-name="Path 349" d="M1295.05,496.028l-1.05-3.054h-8.367l-1.048,3.054h-6.2l7.984-21.218h6.87l8.016,21.218Zm-5.25-15.81-2.7,7.986h5.414Z" transform="translate(-800.367 -219.391)"/>
    <path id="Path_350" data-name="Path 350" d="M1476.83,496.028l-3.562-7.125h-2.794v7.125H1465V474.81h10.625c4.715,0,7.378,3.119,7.378,7.064a6.43,6.43,0,0,1-4.231,6.362l4.327,7.794Zm.6-14.185a2.371,2.371,0,0,0-2.641-2.258h-4.327v4.54h4.327a2.35,2.35,0,0,0,2.642-2.284Z" transform="translate(-954.397 -219.391)"/>
    <path id="Path_351" data-name="Path 351" d="M1585.44,496.028V474.81h8.906c6.679,0,11.484,4.017,11.484,10.593s-4.8,10.625-11.45,10.625Zm14.791-10.625a5.432,5.432,0,0,0-5.852-5.82h-3.466v11.676h3.435a5.634,5.634,0,0,0,5.882-5.855Z" transform="translate(-1053.804 -219.391)"/>
  </g>
</svg>
