<svg xmlns="http://www.w3.org/2000/svg" width="213.135" height="71.732" viewBox="0 0 213.135 71.732">
  <g id="Layer_9" data-name="Layer 9" transform="translate(0.037)">
    <path id="Path_392" data-name="Path 392" d="M271,558.729V534.37l2.711.033,11.85,17.133V534.4h3.476v24.326h-2.78l-11.744-16.994v16.994Z" transform="translate(-229.646 -517.672)"/>
    <path id="Path_393" data-name="Path 393" d="M363.378,550.687h-8.723c-.937,2.223-2.151,5.144-2.919,7.159H347.95l9.765-24.636h2.572l9.763,24.636H366.3Zm-7.41-3.3h6.046l-2.99-8.582Z" transform="translate(-288.201 -516.79)"/>
    <path id="Path_394" data-name="Path 394" d="M441.487,534.65h3.753l-9.763,24.361h-2.57L423.14,534.65h3.825l7.229,18.168Z" transform="translate(-345.417 -517.886)"/>
    <path id="Path_395" data-name="Path 395" d="M521.953,555.433h11.295v3.509H518.41V534.65h14.8v3.512H521.953v6.851h11.015v3.538H521.953Z" transform="translate(-417.913 -517.886)"/>
    <path id="Path_396" data-name="Path 396" d="M604.934,542.8c-.973-3.928-4.726-5.352-7.819-5.352-4.759,0-8.446,3.72-8.446,8.828s3.684,8.931,8.446,8.931a7.954,7.954,0,0,0,7.65-4.934h-9V546.76h13.1a17.512,17.512,0,0,1-.66,4.2v-.038a12.231,12.231,0,0,1-11.087,7.65c-6.811,0-11.952-5.142-11.952-12.3s5.259-12.337,11.952-12.337c4.657,0,10.279,2.391,11.572,8.862Z" transform="translate(-468.707 -517.345)"/>
    <path id="Path_397" data-name="Path 397" d="M696.3,550.687h-8.723c-.937,2.223-2.151,5.144-2.919,7.159H680.87l9.765-24.636h2.57l9.765,24.636h-3.753Zm-7.411-3.3h6.046l-2.991-8.582Z" transform="translate(-541.537 -516.79)"/>
    <path id="Path_398" data-name="Path 398" d="M831.069,546.5h4.1a4.226,4.226,0,1,0,0-8.443h-5.386v20.78H826.31V534.51h8.862a7.535,7.535,0,0,1,7.922,7.75A7.325,7.325,0,0,1,836.8,549.7l7.681,9.139h-4.542l-8.862-10.666Z" transform="translate(-652.21 -517.779)"/>
    <path id="Path_399" data-name="Path 399" d="M911.713,534.65c7.958,0,11.952,6.084,11.952,12.163s-3.994,12.127-11.952,12.127H903V534.65Zm0,20.783c5.63,0,8.479-4.3,8.479-8.618s-2.849-8.654-8.479-8.654H906.5v17.271Z" transform="translate(-710.568 -517.886)"/>
    <path id="Path_400" data-name="Path 400" d="M172.723,464.52c-16.686,5.718-27.73,20.635-27.388,36.1.478,21.825,23.527,39.046,44.477,35.059,13.822-2.63,25.27-14.219,29.343-29.5-.65,2.065-6.081,18.407-22.432,24.225-15.364,5.479-34.086-.557-42.433-14.8-8.924-15.232-1.207-31.683-.464-33.2A38.293,38.293,0,0,1,172.723,464.52Z" transform="translate(-134.016 -464.52)" fill="#c10c2a"/>
    <path id="Path_401" data-name="Path 401" d="M106.4,567.641c-.239.8-.533,1.578-.767,2.371s-.521,1.547-.753,2.324c-.466,1.551-.937,3.065-1.32,4.571a43.726,43.726,0,0,0-.956,4.408c-.108.717-.186,1.41-.239,2.089a14,14,0,0,0,0,1.927,6.622,6.622,0,0,0,.729,2.835,4.734,4.734,0,0,0,.645.765,4.93,4.93,0,0,0,.87.593,16.586,16.586,0,0,0,6.775,1.3c1.382.072,2.837,0,4.3-.057.741-.045,1.482-.074,2.233-.139l2.264-.2c3.038-.284,6.134-.681,9.27-1.066,6.287-.77,12.682-1.673,19.425-1.9l.179.526c-3.053,1.066-6.108,2.13-9.2,3.089s-6.215,1.833-9.361,2.6-6.323,1.449-9.536,1.948a55.251,55.251,0,0,1-9.748.755,26.959,26.959,0,0,1-4.905-.59,13.94,13.94,0,0,1-4.64-1.891,9.442,9.442,0,0,1-1.891-1.728,8.731,8.731,0,0,1-1.281-2.226,11.379,11.379,0,0,1-.574-4.987,21.7,21.7,0,0,1,1.057-4.833,36.552,36.552,0,0,1,1.865-4.542,55.663,55.663,0,0,1,5.113-8.3Z" transform="translate(-97.89 -542.723)" fill="#104282"/>
    <path id="Path_402" data-name="Path 402" d="M293.63,643.245a23.6,23.6,0,0,1,3.61-.065c1.2.062,2.369.184,3.538.356l1.245.184-.6,1.155a42.3,42.3,0,0,1-2.29,3.918c-.418.633-.868,1.25-1.334,1.857a18.258,18.258,0,0,1-1.518,1.757,18.237,18.237,0,0,1,.65-2.228c.258-.717.531-1.434.837-2.128A42.286,42.286,0,0,1,299.821,644l.65,1.339c-1.162-.225-2.314-.5-3.457-.837A23.588,23.588,0,0,1,293.63,643.245Z" transform="translate(-246.867 -600.441)" fill="#104282"/>
  </g>
</svg>
