<svg id="Group_208" data-name="Group 208" xmlns="http://www.w3.org/2000/svg" width="46" height="47" viewBox="0 0 46 47">
  <rect id="Rectangle_660" data-name="Rectangle 660" width="46" height="47" rx="10" fill="#e1ecff"/>
  <g id="worldwide" transform="translate(10.414 7.366)">
    <g id="Group_360" data-name="Group 360">
      <path id="Path_240" data-name="Path 240" d="M13.923.05A13.916,13.916,0,0,0,1.128,8.49l-.172.056.067.2a13.914,13.914,0,1,0,12.9-8.7ZM24.837,20.98l-.715-.714V18.6a.463.463,0,0,0-.046-.207L22.267,14.78V13.037a.464.464,0,0,0-.206-.386l-1.391-.928a.464.464,0,0,0-.371-.064l-1.7.426-2.862-1.228-.4-2.757L16.43,7.007h2.343l.788,1.185a.464.464,0,0,0,.31.2l2.783.464a.46.46,0,0,0,.223-.018l2.563-.854a12.941,12.941,0,0,1-.6,13ZM22.924,4.621l-.754.5L20.07,4.7,18.7,4.249a.455.455,0,0,0-.259-.01l-1.724.431-.756-.252.56-1.121H18.09a.464.464,0,0,0,.207-.049l1.6-.8a13.035,13.035,0,0,1,3.027,2.173ZM8.838,2.013l1.113.742a.463.463,0,0,0,.181.071L12.38,3.2l-.219.656-1.171.391a.464.464,0,0,0-.251.2L9.407,6.67,7.267,7.954,4.113,8.4a.464.464,0,0,0-.4.459V10.25a.464.464,0,0,0,.136.328l.792.792v.8l-1.93-1.287-.7-2.1a13.062,13.062,0,0,1,6.827-6.77ZM7.518,17.221l-2.1-.42-.779-1.554v-1.09L6.37,12.429l.64,1.28a.464.464,0,0,0,.415.256h2.984l1.256,2.094a.464.464,0,0,0,.4.225h1.289l-.325,1.627-1.756,1.756a.464.464,0,0,0-.136.328v1.16l-1.67,1.252a.464.464,0,0,0-.186.371v1.675L8.7,24.262l-.814-2.037v-4.55a.464.464,0,0,0-.368-.454Zm-1.394,7.13A12.984,12.984,0,0,1,1.5,10.172l.385,1.156a.464.464,0,0,0,.182.239l2.312,1.541-.527.528a.464.464,0,0,0-.136.328v1.391a.464.464,0,0,0,.049.207l.928,1.855a.464.464,0,0,0,.325.247l1.948.389v4.258A.464.464,0,0,0,7,22.486L7.924,24.8a.464.464,0,0,0,.284.268l1.391.464a.456.456,0,0,0,.144.024.464.464,0,0,0,.464-.464V23.009l1.67-1.252a.464.464,0,0,0,.186-.371v-1.2l1.719-1.719a.464.464,0,0,0,.127-.237l.464-2.319a.464.464,0,0,0-.455-.555H12.326L11.07,13.262a.464.464,0,0,0-.4-.225H7.712l-.8-1.6a.464.464,0,0,0-.341-.25.455.455,0,0,0-.4.13l-.6.6v-.736a.464.464,0,0,0-.136-.328l-.792-.792v-.8l2.849-.407A.466.466,0,0,0,7.664,8.8L9.983,7.4a.464.464,0,0,0,.159-.159l1.3-2.172,1.229-.41a.459.459,0,0,0,.293-.293L13.43,2.98a.464.464,0,0,0-.364-.6l-2.685-.448-.472-.314a12.951,12.951,0,0,1,8.92.332l-.847.423H16.238a.464.464,0,0,0-.417.256l-.928,1.855a.464.464,0,0,0,.269.647l1.391.464a.455.455,0,0,0,.259.01l1.724-.431L19.8,5.6a.341.341,0,0,0,.056.015l2.319.464A.461.461,0,0,0,22.522,6l1.056-.7a13.085,13.085,0,0,1,1.4,1.864L22.7,7.925,20.22,7.511,19.4,6.286a.464.464,0,0,0-.384-.206H16.238a.464.464,0,0,0-.328.136L14.518,7.607A.464.464,0,0,0,14.387,8l.464,3.247a.464.464,0,0,0,.278.36L18.376,13a.458.458,0,0,0,.295.024l1.656-.414,1.013.676v1.607a.463.463,0,0,0,.046.207l1.809,3.613v1.746a.464.464,0,0,0,.136.328l.97.971A12.984,12.984,0,0,1,6.123,24.351Z" transform="translate(0 -0.05)" fill="#1a6eff"/>
    </g>
  </g>
</svg>
