<svg xmlns="http://www.w3.org/2000/svg" width="21.334" height="19.331" viewBox="0 0 21.334 19.331">
  <g id="domain" transform="translate(0 -0.003)">
    <path id="Path_36" data-name="Path 36" d="M20.56,8.435h-.381a9.67,9.67,0,0,0-19.031.042H.775A.776.776,0,0,0,0,9.252v2.816a.776.776,0,0,0,.775.775h.6a9.665,9.665,0,0,0,3,4.657.313.313,0,1,0,.408-.475,9.059,9.059,0,0,1-1.031-1.042,12,12,0,0,1,1.459-.5,10.372,10.372,0,0,0,.787,1.19,12.2,12.2,0,0,0,2.124,2.17,8.966,8.966,0,0,1-1.835-.766.313.313,0,0,0-.3.547,9.675,9.675,0,0,0,13.976-5.765h.6a.776.776,0,0,0,.775-.775V9.21a.776.776,0,0,0-.774-.775Zm-1.018,0H17.366c-.026-.162-.055-.324-.088-.486a11.024,11.024,0,0,0-.867-2.563l.173-.048a11.927,11.927,0,0,0,1.4-.482,8.942,8.942,0,0,1,1.558,3.579Zm-2.8.042H13.506c-.011-.157-.022-.314-.036-.47-.062-.7-.153-1.378-.271-2.025a20.252,20.252,0,0,0,2.594-.436,10.389,10.389,0,0,1,.873,2.531c.026.132.05.266.072.4Zm.321-4.7q.276.276.525.572a12.075,12.075,0,0,1-1.174.391l-.3.081a10.993,10.993,0,0,0-.653-1.032A10.746,10.746,0,0,0,13.255,1.5a9,9,0,0,1,3.8,2.273Zm-5.428-2.6a10.169,10.169,0,0,1,3.321,2.972q.286.4.531.825a19.781,19.781,0,0,1-2.408.391,12.87,12.87,0,0,0-1.6-4.2Zm-.965-.051h.023A11.23,11.23,0,0,1,12.452,5.42q-1,.072-2.053.058c-.475-.007-.983-.022-1.512-.054a11.235,11.235,0,0,1,1.76-4.3Zm-.811.036a12.88,12.88,0,0,0-1.6,4.215A17.949,17.949,0,0,1,5.83,5.008q.253-.441.551-.859A10.172,10.172,0,0,1,9.7,1.177ZM8.134,5.994c-.117.644-.207,1.317-.269,2.012-.014.157-.026.313-.036.47H4.6c.022-.134.047-.268.074-.4a10.4,10.4,0,0,1,.856-2.5,18.2,18.2,0,0,0,2.6.418ZM4.275,3.773A9,9,0,0,1,8.079,1.5,10.738,10.738,0,0,0,5.872,3.786,10.94,10.94,0,0,0,5.2,4.85a11.972,11.972,0,0,1-1.454-.5Q4,4.052,4.275,3.773ZM3.347,4.857a12.4,12.4,0,0,0,1.561.56,11.028,11.028,0,0,0-.852,2.532q-.054.264-.1.528H1.784a8.941,8.941,0,0,1,1.563-3.62ZM.775,12.216a.149.149,0,0,1-.149-.149V9.252A.149.149,0,0,1,.775,9.1H9.8a.313.313,0,0,0,0-.626H8.455c.01-.138.02-.277.033-.415.062-.7.154-1.376.272-2.019.571.037,1.118.053,1.627.06h.369q.926,0,1.816-.068c.119.645.211,1.323.273,2.025q.018.207.033.415h-1.12a.313.313,0,1,0,0,.626H16.61v3.114H.775Zm15.761.626a9.955,9.955,0,0,1-.746,1.945,20.263,20.263,0,0,0-2.589-.436c.09-.489.164-.993.221-1.509Zm-3.743,0c-.056.5-.129.983-.217,1.453q-1.068-.081-2.188-.066c-.511.007-1.059.024-1.63.06-.088-.469-.16-.953-.216-1.448ZM3.349,15.474a9.032,9.032,0,0,1-1.318-2.632H4.153a10.6,10.6,0,0,0,.756,2.073,12.387,12.387,0,0,0-1.56.559ZM4.8,12.842H7.912c.056.511.13,1.011.219,1.5a18.2,18.2,0,0,0-2.6.414A9.956,9.956,0,0,1,4.8,12.842Zm4.9,6.312a10.819,10.819,0,0,1-3.209-2.863,9.714,9.714,0,0,1-.652-.969,17.971,17.971,0,0,1,2.415-.366,16.106,16.106,0,0,0,.439,1.623A12.234,12.234,0,0,0,9.861,19.17Zm.968.053h-.023a10.077,10.077,0,0,1-1.357-2.824,14.5,14.5,0,0,1-.4-1.474c.529-.032,1.037-.047,1.512-.054q1.05-.015,2.053.058c-.115.514-.249,1.006-.4,1.469A10.072,10.072,0,0,1,10.7,19.206Zm.806-.036a12.215,12.215,0,0,0,1.168-2.592,16,16,0,0,0,.437-1.611,19.779,19.779,0,0,1,2.4.389,9.7,9.7,0,0,1-.632.934,10.819,10.819,0,0,1-3.212,2.865Zm5.587-2.612a8.993,8.993,0,0,1-3.849,2.286,12.2,12.2,0,0,0,2.13-2.174,10.335,10.335,0,0,0,.768-1.159l.3.083a12.12,12.12,0,0,1,1.173.391c-.165.2-.339.389-.523.573Zm.926-1.083a11.937,11.937,0,0,0-1.4-.481l-.173-.048a10.6,10.6,0,0,0,.767-2.09H19.3a8.941,8.941,0,0,1-1.314,2.618Zm2.723-3.408a.149.149,0,0,1-.149.149H17.236V9.1H20.56a.149.149,0,0,1,.149.149Zm0,0" transform="translate(0 -0.5)" fill="#004b8d"/>
    <path id="Path_37" data-name="Path 37" d="M49.955,221.034c0,.046-.07.1-.15.1s-.148-.049-.148-.1v-1.551c0-.055.06-.093.148-.093s.15.037.15.093v.71a.317.317,0,0,1,.291-.176.444.444,0,0,1,.4.469v.548c0,.063-.076.1-.15.1s-.148-.032-.148-.1v-.548a.214.214,0,0,0-.2-.208.2.2,0,0,0-.19.208v.548Zm0,0" transform="translate(-47.587 -210.27)" fill="#004b8d"/>
    <path id="Path_38" data-name="Path 38" d="M82.247,224.213c0,.09.032.123.13.123h.09a.126.126,0,1,1,0,.252h-.09c-.277,0-.428-.113-.428-.375v-1.121c0-.055.078-.092.148-.092s.15.037.15.092v.4h.273c.049,0,.076.056.076.109s-.028.109-.076.109h-.273v.506Zm0,0" transform="translate(-78.535 -213.729)" fill="#004b8d"/>
    <path id="Path_39" data-name="Path 39" d="M104.826,224.213c0,.09.032.123.129.123h.09a.126.126,0,1,1,0,.252h-.09c-.277,0-.428-.113-.428-.375v-1.121c0-.055.079-.092.148-.092s.15.037.15.092v.4h.273c.049,0,.076.056.076.109s-.028.109-.076.109h-.273Zm0,0" transform="translate(-100.172 -213.729)" fill="#004b8d"/>
    <path id="Path_40" data-name="Path 40" d="M127.5,234.532v.069a.363.363,0,0,1,.312-.176.444.444,0,0,1,.414.469v.189a.459.459,0,0,1-.4.474.343.343,0,0,1-.3-.183v.578c0,.049-.069.1-.153.1s-.146-.046-.146-.1V234.53c0-.056.062-.092.141-.092S127.5,234.477,127.5,234.532Zm.428.363a.217.217,0,0,0-.21-.208.2.2,0,0,0-.2.208v.231a.225.225,0,0,0,.2.171.22.22,0,0,0,.206-.213Zm0,0" transform="translate(-121.918 -224.678)" fill="#004b8d"/>
    <path id="Path_41" data-name="Path 41" d="M158.369,235.232c0-.2-.548-.076-.548-.462,0-.164.1-.344.414-.344.187,0,.368.065.368.15,0,.042-.039.143-.109.143s-.127-.067-.254-.067-.162.058-.162.1c0,.169.555.053.555.465,0,.206-.152.338-.425.338-.236,0-.418-.1-.418-.2,0-.049.042-.132.1-.132s.118.1.312.1C158.337,235.332,158.369,235.279,158.369,235.232Zm0,0" transform="translate(-151.214 -224.678)" fill="#004b8d"/>
    <path id="Path_42" data-name="Path 42" d="M185.562,237.856a.16.16,0,0,1-.155.157.157.157,0,1,1,.155-.157Zm0,.675a.16.16,0,0,1-.155.157.157.157,0,1,1,.155-.157Zm0,0" transform="translate(-177.531 -227.815)" fill="#004b8d"/>
    <path id="Path_43" data-name="Path 43" d="M200.489,218.444a.089.089,0,0,1-.009.042l-.83,1.678a.1.1,0,0,1-.09.051.108.108,0,0,1-.111-.1.079.079,0,0,1,.012-.039l.83-1.685a.09.09,0,0,1,.083-.049.112.112,0,0,1,.115.1Zm0,0" transform="translate(-191.138 -209.263)" fill="#004b8d"/>
    <path id="Path_44" data-name="Path 44" d="M217.247,218.444a.091.091,0,0,1-.009.042l-.83,1.678a.1.1,0,0,1-.09.051.108.108,0,0,1-.111-.1.077.077,0,0,1,.012-.039l.83-1.685a.09.09,0,0,1,.083-.049A.112.112,0,0,1,217.247,218.444Zm0,0" transform="translate(-207.198 -209.263)" fill="#004b8d"/>
    <path id="Path_45" data-name="Path 45" d="M245.54,235.562c-.016.039-.067.053-.118.053s-.109-.019-.123-.053l-.178-.5-.176.5c-.014.037-.069.055-.127.055a.116.116,0,0,1-.116-.055l-.356-.913a.1.1,0,0,1-.012-.044c0-.072.116-.123.194-.123a.085.085,0,0,1,.085.048l.231.656.173-.571c.016-.053.056-.06.1-.06s.086.007.1.06l.171.573.233-.659a.086.086,0,0,1,.086-.048c.074,0,.192.051.192.125a.085.085,0,0,1-.009.042Zm0,0" transform="translate(-234.155 -224.731)" fill="#004b8d"/>
    <path id="Path_46" data-name="Path 46" d="M287.314,235.562c-.016.039-.067.053-.118.053s-.109-.019-.123-.053l-.178-.5-.176.5c-.014.037-.069.055-.127.055a.116.116,0,0,1-.116-.055l-.356-.913a.1.1,0,0,1-.012-.044c0-.072.116-.123.194-.123a.085.085,0,0,1,.086.048l.231.656.173-.571c.016-.053.056-.06.1-.06s.085.007.1.06l.171.573.234-.659a.086.086,0,0,1,.085-.048c.074,0,.192.051.192.125a.085.085,0,0,1-.009.042Zm0,0" transform="translate(-274.188 -224.731)" fill="#004b8d"/>
    <path id="Path_47" data-name="Path 47" d="M329.091,235.562c-.016.039-.067.053-.118.053s-.109-.019-.123-.053l-.178-.5-.176.5c-.014.037-.069.055-.127.055a.116.116,0,0,1-.116-.055l-.356-.913a.1.1,0,0,1-.012-.044c0-.072.116-.123.194-.123a.085.085,0,0,1,.086.048l.231.656.173-.571c.016-.053.055-.06.1-.06s.086.007.1.06l.171.573.234-.659a.086.086,0,0,1,.085-.048c.074,0,.192.051.192.125a.084.084,0,0,1-.009.042Zm0,0" transform="translate(-314.224 -224.731)" fill="#004b8d"/>
    <path id="Path_48" data-name="Path 48" d="M426.067,214.124l-.337-.049-.151-.306a.469.469,0,0,0-.842,0l-.151.306-.337.049a.469.469,0,0,0-.26.8l.244.238-.058.336a.469.469,0,0,0,.681.5l.3-.159.3.159a.469.469,0,0,0,.681-.495l-.058-.336.244-.238a.469.469,0,0,0-.26-.8Zm-.48.648a.47.47,0,0,0-.135.415l.018.1-.094-.049a.469.469,0,0,0-.437,0l-.094.049.018-.1a.469.469,0,0,0-.135-.415l-.076-.074.105-.015a.47.47,0,0,0,.354-.257l.047-.1.047.1a.469.469,0,0,0,.353.257l.1.015Zm0,0" transform="translate(-406.185 -204.632)" fill="#004b8d"/>
  </g>
</svg>
