<svg xmlns="http://www.w3.org/2000/svg" width="286.985" height="322.949" viewBox="0 0 286.985 322.949">
  <g id="Group_447" data-name="Group 447" transform="translate(-330.107 -1996.089)">
    <g id="Group_339" data-name="Group 339" transform="translate(120.105 301.088)">
      <g id="dominican-republic" transform="translate(210 1695)">
        <path id="Path_213" data-name="Path 213" d="M312.28,237.887c.111-.385.213-.774.3-1.166.03-.127.056-.254.083-.381q.107-.511.189-1.029c.023-.15.048-.3.069-.448.048-.344.083-.691.114-1.037.013-.142.03-.283.04-.425.033-.484.053-.969.053-1.459h0v-25.8h0V189.614h0V170.826h0l-.005-30.8V97.646a21.536,21.536,0,0,0-9.212-17.614c-.495-.344-1-.676-1.527-.98L287.94,70.721l-13.507-7.8L263.559,56.65l-41.582-24-16.221-9.363L193.59,16.265l-7.54-4.352a21.472,21.472,0,0,0-21.471,0l-7.488,4.325-12.166,7.027L128.7,32.641h0L87.125,56.655,68.9,67.18l-13.5,7.8-7.116,4.11c-.512.3-1,.618-1.484.951a21.54,21.54,0,0,0-9.248,17.646v42.334l.008,46.511V189.6h0v.008h0v16.525h0v25.846h0c0,.488.021.971.053,1.454.01.141.026.281.038.421.03.347.066.691.114,1.033.021.149.045.3.068.447q.082.515.188,1.025c.026.127.054.254.083.38q.132.582.3,1.151c.021.071.038.144.06.214a21.448,21.448,0,0,0,2.485,5.417h0a21.527,21.527,0,0,0,2.539,3.24c.032.033.062.067.093.1q.671.694,1.407,1.332c.079.069.16.136.241.2.5.417,1.006.819,1.542,1.192.495.344,1,.675,1.526.98l14.225,8.21,13.507,7.8,11.077,6.392,57.806,33.361,12.166,7.022,7.54,4.352a21.472,21.472,0,0,0,21.471,0l7.488-4.325,12.166-7.027,16.221-9.369,35.041-20.239,6.537-3.775,16.627-9.6,13.5-7.8,8.713-5.032c.513-.3,1-.618,1.484-.951.536-.371,1.046-.773,1.542-1.188l.243-.2q.737-.635,1.41-1.33c.029-.03.057-.062.086-.091a21.47,21.47,0,0,0,5.058-8.684A.868.868,0,0,0,312.28,237.887Z" transform="translate(-31.847 -3.338)" fill="#fff"/>
        <path id="Path_214" data-name="Path 214" d="M85.285,147.887h67.432V24.466l-7.794,4.5L128.7,38.336h0L87.125,62.351,68.9,72.876l-13.5,7.8-7.116,4.11c-.512.3-1,.618-1.484.951a21.54,21.54,0,0,0-9.248,17.646v44.505H85.285Z" transform="translate(-31.847 -9.034)" fill="#103b9b"/>
        <g id="Group_335" data-name="Group 335" transform="translate(5.717 15.452)">
          <path id="Path_215" data-name="Path 215" d="M407.016,147.9V103.349A21.536,21.536,0,0,0,397.8,85.733c-.495-.344-1-.676-1.527-.98l-14.428-8.327-13.506-7.794L357.46,62.357l-41.582-24L299.656,29l-7.794-4.5V147.9Z" transform="translate(-131.465 -24.497)" fill="#ed1f34"/>
          <path id="Path_216" data-name="Path 216" d="M37.571,291.864v2.162h0v.008h0v16.525h0v25.854h0c0,.488.021.971.053,1.454.01.141.026.281.038.421.031.347.066.691.114,1.034.021.148.045.3.069.445q.081.514.188,1.025c.026.127.053.254.082.38q.132.582.3,1.151c.021.071.038.144.06.214a21.425,21.425,0,0,0,2.485,5.417h0A21.527,21.527,0,0,0,43.5,351.2c.032.033.062.067.093.1q.671.7,1.407,1.332c.079.069.16.136.241.2.5.417,1.005.819,1.542,1.192.495.344,1,.675,1.526.98l14.225,8.21,13.507,7.8,11.077,6.392,57.806,33.361,7.794,4.5v-123.4Z" transform="translate(-37.571 -123.219)" fill="#ed1f34"/>
        </g>
        <path id="Path_217" data-name="Path 217" d="M291.862,415.287l7.794-4.5,16.221-9.369,35.041-20.239,6.536-3.775,16.627-9.6,13.5-7.8,8.713-5.032c.513-.3,1-.618,1.484-.951.536-.371,1.047-.773,1.542-1.188l.243-.2q.737-.635,1.41-1.33c.03-.03.057-.062.086-.091a21.478,21.478,0,0,0,5.058-8.684c.021-.067.038-.136.057-.2.111-.385.213-.775.3-1.166.03-.127.056-.254.083-.381q.107-.511.189-1.029c.023-.149.048-.3.069-.449.048-.344.083-.689.114-1.036.013-.142.03-.283.04-.425.033-.484.053-.969.053-1.459h0v-25.8h0V294.055h0v-2.17H291.862Z" transform="translate(-125.748 -107.768)" fill="#103b9b"/>
        <circle id="Ellipse_49" data-name="Ellipse 49" cx="13.307" cy="13.307" r="13.307" transform="translate(130.188 148.17)" fill="#259245"/>
        <path id="Path_218" data-name="Path 218" d="M315.471,94.3a27.237,27.237,0,0,0-11.658-22.294c-.689-.481-1.321-.885-1.934-1.239L185.561,3.638a27.174,27.174,0,0,0-27.173.006L42.09,70.813c-.59.341-1.185.721-1.88,1.2a27.245,27.245,0,0,0-11.7,22.336l.022,134.3c0,.581.021,1.183.066,1.841.01.148.023.3.038.443l.009.09c.038.437.085.874.146,1.321.021.151.045.3.068.452l.016.1c.069.436.148.869.24,1.309.033.16.067.32.1.471.112.491.238.976.384,1.483l.071.248a27.248,27.248,0,0,0,6.356,10.956c.025.026.1.1.123.13.565.586,1.165,1.154,1.772,1.68l.314.264c.689.58,1.328,1.072,1.953,1.506.691.482,1.322.885,1.933,1.238l116.32,67.131a27.221,27.221,0,0,0,13.582,3.638h0a27.208,27.208,0,0,0,13.591-3.644L301.907,252.14c.589-.339,1.185-.72,1.882-1.2.621-.43,1.261-.922,2.008-1.547l.255-.214c.622-.537,1.222-1.1,1.817-1.718l.075-.08a27.221,27.221,0,0,0,6.385-10.932c.033-.108.064-.216.09-.313q.212-.733.384-1.476c.037-.16.071-.32.106-.488.09-.431.17-.867.252-1.378.026-.163.051-.325.076-.5.059-.433.106-.869.143-1.3l.009-.09c.016-.151.03-.3.04-.455.045-.667.067-1.273.066-1.849ZM297.3,81.37a15.829,15.829,0,0,1,6.766,12.93l.007,38.848H200.325V25.329l95.853,55.32C296.513,80.842,296.867,81.07,297.3,81.37ZM46.7,241.581c-.339-.237-.71-.523-1.127-.874l-.185-.155c-.358-.308-.706-.638-1-.944l-.1-.107a15.836,15.836,0,0,1-1.865-2.379l-.03-.047a15.732,15.732,0,0,1-1.8-3.935l-.044-.155c-.08-.279-.154-.56-.221-.854l-.059-.27c-.052-.249-.1-.5-.137-.746l-.052-.33c-.034-.252-.061-.507-.082-.759l-.03-.311c-.025-.354-.04-.71-.04-1.072V189.8H143.674V297.621L47.823,242.3C47.489,242.109,47.133,241.88,46.7,241.581Zm133.21,67.85a15.794,15.794,0,0,1-7.887,2.114h0a15.785,15.785,0,0,1-7.881-2.111l-9.06-5.229V184.1a5.7,5.7,0,0,0-5.7-5.7H39.927l-.005-33.838H60.285a5.7,5.7,0,0,0,0-11.4H39.919l-.006-38.8A15.836,15.836,0,0,1,46.7,81.392c.43-.3.777-.521,1.092-.7l95.881-55.377V133.149H81.946a5.7,5.7,0,0,0,0,11.405h67.432a5.7,5.7,0,0,0,5.7-5.7V18.724l9.01-5.2a15.769,15.769,0,0,1,15.768,0l9.06,5.228v120.1a5.7,5.7,0,0,0,5.7,5.7h109.45l.006,33.838H194.622a5.7,5.7,0,0,0-5.7,5.7V304.225Zm124.139-79.77-.032.328c-.022.257-.048.513-.081.755l-.052.333c-.04.255-.086.507-.137.751l-.061.282c-.066.288-.141.573-.228.874l-.038.137A15.862,15.862,0,0,1,299.7,239.5l-.052.057c-.325.336-.674.665-1.031.973l-.185.153c-.432.362-.791.639-1.125.872-.43.3-.777.521-1.094.7l-95.881,55.378V189.8H304.082l.007,38.811c0,.358-.017.713-.04,1.05Z" transform="translate(-28.508)"/>
      </g>
    </g>
  </g>
</svg>
