<svg xmlns="http://www.w3.org/2000/svg" width="21.504" height="21.511" viewBox="0 0 21.504 21.511">
  <g id="email" transform="translate(-0.004 0)">
    <g id="Group_44" data-name="Group 44">
      <g id="Group_43" data-name="Group 43">
        <path id="Path_49" data-name="Path 49" d="M21.5,8.227a.339.339,0,0,0-.015-.073.359.359,0,0,0-.02-.062.322.322,0,0,0-.036-.055.338.338,0,0,0-.048-.056c-.006,0-.008-.012-.014-.017L17.925,5.288V2.513A1.076,1.076,0,0,0,16.85,1.438H12.964L11.409.229a1.063,1.063,0,0,0-1.307,0L8.545,1.437H4.66A1.075,1.075,0,0,0,3.585,2.513V5.288L.138,7.965a.209.209,0,0,0-.014.017.336.336,0,0,0-.048.056.32.32,0,0,0-.036.055.354.354,0,0,0-.02.062A.34.34,0,0,0,0,8.227c0,.008,0,.014,0,.022v12.19a1.063,1.063,0,0,0,.21.633s0,.007,0,.01l.011.01a1.07,1.07,0,0,0,.847.423H20.434a1.071,1.071,0,0,0,.85-.424.011.011,0,0,0,.01-.008c0-.008,0-.007,0-.01a1.064,1.064,0,0,0,.21-.633V8.248A.078.078,0,0,0,21.5,8.227ZM10.54.8a.344.344,0,0,1,.428,0l.827.642H9.715Zm-9.374,20,9.374-7.281a.344.344,0,0,1,.428,0L20.344,20.8Zm19.627-.559-9.384-7.288a1.064,1.064,0,0,0-1.307,0L.717,20.237V8.794l5.875,4.562a.359.359,0,0,0,.44-.567L1.063,8.155,3.585,6.2V8.97a.359.359,0,0,0,.717,0V2.512a.358.358,0,0,1,.358-.358H16.849a.358.358,0,0,1,.358.358V8.965a.358.358,0,1,0,.717,0V6.2l2.522,1.96L14.468,12.8a.358.358,0,1,0,.44.566L20.793,8.8V20.237Z" transform="translate(-0.001 -0.004)" fill="#004b8d"/>
        <path id="Path_50" data-name="Path 50" d="M162.178,73.973V72.539a4.3,4.3,0,1,0-4.3,4.3.359.359,0,0,0,0-.717,3.585,3.585,0,1,1,3.585-3.585v1.434a.717.717,0,1,1-1.434,0V72.539a.359.359,0,0,0-.717,0,1.434,1.434,0,1,1-1.434-1.434.359.359,0,1,0,0-.717,2.151,2.151,0,1,0,1.449,3.736,1.43,1.43,0,0,0,2.853-.151Z" transform="translate(-147.122 -65.37)" fill="#004b8d"/>
      </g>
    </g>
  </g>
</svg>
