<svg xmlns="http://www.w3.org/2000/svg" xmlns:xlink="http://www.w3.org/1999/xlink" width="287" height="322" viewBox="0 0 287 322">
  <defs>
    <clipPath id="clip-path">
      <rect id="stock-photo-happy-young-fashion-man-walking-with-his-hand-in-pocket-on-studio-background-289775255" width="161" height="228" transform="translate(1262.18 1754.101)" fill="#ebebeb"/>
    </clipPath>
  </defs>
  <g id="Group_446" data-name="Group 446" transform="translate(-1313 -1996)">
    <g id="Group_444" data-name="Group 444" transform="translate(3 -355)">
      <g id="Mask_Group_15" data-name="Mask Group 15" transform="translate(110.82 617.899)" clip-path="url(#clip-path)">
        <g id="ship" transform="translate(1261.926 1806.096)">
          <path id="Path_226" data-name="Path 226" d="M161.508,123.534l-17.1,38.479c-4.157-2.007-7.119-4.668-14.964-4.668-12.6,0-12.6,6.866-25.2,6.866s-12.6-6.866-25.2-6.866-12.6,6.866-25.2,6.866-12.6-6.866-25.2-6.866c-7.842,0-10.8,2.656-14.957,4.665L0,123.534H42.649L54.32,137.266h63.508l12.7-13.731Zm0,0" transform="translate(0.001 -70.411)" fill="#00acea"/>
          <path id="Path_227" data-name="Path 227" d="M279.945,112.218v.086H269.189l-12.7,13.731H243.557V103.807h36.388Zm0,0" transform="translate(-138.659 -59.18)" fill="#00ceb4"/>
          <path id="Path_228" data-name="Path 228" d="M240.092,52V74.226H203.7V52Zm0,0" transform="translate(-115.97 -29.685)" fill="#f4b844"/>
          <path id="Path_229" data-name="Path 229" d="M198.645,22.418V22.5H162.257V.19h36.388Zm0,0" transform="translate(-92.374 -0.19)" fill="#00efd1"/>
          <path id="Path_230" data-name="Path 230" d="M159.069,103.807h36.388v22.228H159.069Zm0,0" transform="translate(-90.559 -59.18)" fill="#00efd1"/>
          <path id="Path_231" data-name="Path 231" d="M155.6,52V74.226H119.216V52Zm0,0" transform="translate(-67.871 -29.685)" fill="#fedb41"/>
          <path id="Path_232" data-name="Path 232" d="M110.969,103.807v22.228H96.78L85.109,112.3H74.581v-8.5Zm0,0" transform="translate(-42.459 -59.18)" fill="#00ceb4"/>
          <path id="Path_233" data-name="Path 233" d="M36.594,68.737v23.6H20.116v-23.6Zm0,0" transform="translate(-11.452 -39.214)" fill="#fedb41"/>
          <path id="Path_234" data-name="Path 234" d="M37.245,55.729v.13H27.29V46.117h9.955Zm0,0" transform="translate(-15.536 -26.337)" fill="#00acea"/>
          <g id="Group_340" data-name="Group 340" transform="translate(0.687 84.188)">
            <path id="Path_235" data-name="Path 235" d="M155.552,208.02a24.417,24.417,0,0,1-11.432-2.471c-.877-.424-1.691-.868-2.479-1.3a22.1,22.1,0,0,0-22.574,0,25.61,25.61,0,0,1-13.915,3.767,25.612,25.612,0,0,1-13.916-3.767,20.145,20.145,0,0,0-11.285-3.1,20.158,20.158,0,0,0-11.288,3.1,25.614,25.614,0,0,1-13.916,3.768,25.606,25.606,0,0,1-13.911-3.767,20.154,20.154,0,0,0-11.288-3.1,20.164,20.164,0,0,0-11.29,3.1c-.786.428-1.6.87-2.471,1.294A24.494,24.494,0,0,1,4.343,208.02a2.746,2.746,0,1,1,0-5.493,19.1,19.1,0,0,0,9.051-1.927c.756-.365,1.474-.756,2.235-1.172a25.627,25.627,0,0,1,13.916-3.767,25.61,25.61,0,0,1,13.916,3.768,20.151,20.151,0,0,0,11.284,3.1,20.157,20.157,0,0,0,11.288-3.1,25.627,25.627,0,0,1,13.916-3.767,25.6,25.6,0,0,1,13.911,3.767,20.154,20.154,0,0,0,11.288,3.1,20.152,20.152,0,0,0,11.289-3.1,27.581,27.581,0,0,1,27.828,0c.764.416,1.484.81,2.242,1.176a19.058,19.058,0,0,0,9.042,1.922,2.747,2.747,0,1,1,0,5.493Zm0,0" transform="translate(-1.595 -195.662)" fill="#d4e1f4"/>
            <path id="Path_236" data-name="Path 236" d="M155.55,239.9a25.619,25.619,0,0,1-13.912-3.767,22.105,22.105,0,0,0-22.572,0A25.614,25.614,0,0,1,105.15,239.9a25.611,25.611,0,0,1-13.916-3.768,20.137,20.137,0,0,0-11.284-3.1,20.158,20.158,0,0,0-11.288,3.1A25.614,25.614,0,0,1,54.744,239.9a25.606,25.606,0,0,1-13.911-3.767,20.154,20.154,0,0,0-11.288-3.1,20.148,20.148,0,0,0-11.288,3.1A25.618,25.618,0,0,1,4.34,239.9a2.746,2.746,0,0,1,0-5.493,20.154,20.154,0,0,0,11.288-3.1,25.627,25.627,0,0,1,13.916-3.767,25.609,25.609,0,0,1,13.915,3.768,20.154,20.154,0,0,0,11.284,3.1,20.163,20.163,0,0,0,11.29-3.1,25.622,25.622,0,0,1,13.915-3.767,25.6,25.6,0,0,1,13.912,3.767,20.151,20.151,0,0,0,11.288,3.1,20.147,20.147,0,0,0,11.288-3.1,27.579,27.579,0,0,1,27.829,0,20.151,20.151,0,0,0,11.284,3.1,2.747,2.747,0,1,1,0,5.493Zm0,0" transform="translate(-1.594 -213.812)" fill="#d4e1f4"/>
            <path id="Path_237" data-name="Path 237" d="M155.55,271.784a25.619,25.619,0,0,1-13.912-3.767,22.1,22.1,0,0,0-22.572,0,25.615,25.615,0,0,1-13.916,3.768,25.61,25.61,0,0,1-13.916-3.768,20.136,20.136,0,0,0-11.284-3.1,20.158,20.158,0,0,0-11.288,3.1,25.615,25.615,0,0,1-13.916,3.768,25.606,25.606,0,0,1-13.911-3.767,20.154,20.154,0,0,0-11.288-3.1,20.148,20.148,0,0,0-11.288,3.1A25.618,25.618,0,0,1,4.34,271.784a2.746,2.746,0,1,1,0-5.493,20.154,20.154,0,0,0,11.288-3.1,25.627,25.627,0,0,1,13.916-3.767,25.609,25.609,0,0,1,13.915,3.768,20.154,20.154,0,0,0,11.284,3.1,20.163,20.163,0,0,0,11.29-3.1,25.622,25.622,0,0,1,13.915-3.767,25.6,25.6,0,0,1,13.912,3.767,20.151,20.151,0,0,0,11.288,3.1,20.147,20.147,0,0,0,11.288-3.1,27.579,27.579,0,0,1,27.829,0,20.151,20.151,0,0,0,11.284,3.1,2.747,2.747,0,0,1,0,5.493Zm0,0" transform="translate(-1.594 -231.963)" fill="#d4e1f4"/>
          </g>
        </g>
      </g>
      <g id="arrow-point-to-right" transform="translate(1338.774 2589.571)">
        <path id="Path_238" data-name="Path 238" d="M131.6,34.457,104.635,61.418a4.391,4.391,0,1,1-6.21-6.209l23.858-23.857L98.425,7.5a4.391,4.391,0,0,1,6.21-6.21L131.6,28.248a4.391,4.391,0,0,1,0,6.209Z" fill="#004b8d"/>
      </g>
      <g id="arrow-point-to-right-2" data-name="arrow-point-to-right" transform="translate(1435.912 2545.57)">
        <path id="Path_238-2" data-name="Path 238" d="M98.425,34.457l26.962,26.962a4.391,4.391,0,1,0,6.21-6.209L107.74,31.352,131.6,7.5a4.391,4.391,0,1,0-6.21-6.21L98.424,28.248a4.391,4.391,0,0,0,0,6.209Z" transform="translate(-97.138)" fill="#004b8d"/>
      </g>
    </g>
    <rect id="Rectangle_433" data-name="Rectangle 433" width="287" height="322" transform="translate(1313 1996)" fill="none"/>
  </g>
</svg>
