<svg id="Payments" xmlns="http://www.w3.org/2000/svg" width="82.872" height="82.872" viewBox="0 0 82.872 82.872">
  <rect id="Rectangle_668" data-name="Rectangle 668" width="82.872" height="82.872" rx="10" fill="#e1ecff"/>
  <g id="noun_payment_2281176" transform="translate(21.31 21.371)">
    <path id="Path_87" data-name="Path 87" d="M7.07,88.8a.854.854,0,1,1,.607-.248A.854.854,0,0,1,7.07,88.8Z" transform="translate(-3.68 -51.518)" fill="#1a6eff"/>
    <path id="Path_88" data-name="Path 88" d="M7.9,78.9H0V76.86H5.853V66.383H0V64.339H7.9Z" transform="translate(0 -38.06)" fill="#1a6eff"/>
    <path id="Path_89" data-name="Path 89" d="M33.427,74.372H22.659V64l.121-.226a6.72,6.72,0,0,1,2.862-2.7,8.867,8.867,0,0,1,7.258-.19,21.249,21.249,0,0,1,2.173,1.035c.579.3,1.126.591,1.692.83a5.529,5.529,0,0,0,.73.212A3.276,3.276,0,0,1,40,64.565a4.81,4.81,0,0,1,.308,2.22l5.14-.076,2.67-2.956a2.793,2.793,0,0,1,4.153,3.736l-4.023,4.489ZM24.7,72.327h8.559l13.947-2.253,3.54-3.951a.748.748,0,0,0-1.113-1L46.37,68.74l-12.657.187-.03-2.044,4.578-.068a3.275,3.275,0,0,0-.131-1.429c-.078-.178-.759-.346-1.125-.436a6.924,6.924,0,0,1-1.036-.313c-.644-.272-1.255-.593-1.846-.9a19.428,19.428,0,0,0-1.963-.94,6.828,6.828,0,0,0-5.579.1A4.9,4.9,0,0,0,24.7,64.533Z" transform="translate(-13.404 -35.614)" fill="#1a6eff"/>
    <path id="Path_90" data-name="Path 90" d="M56.639,4.562V2.389L50.128,0,37.552,6.466H26.7V21.68H51.615V17.371c.339.012.674.025,1,.049.2.012.408.02.613.02a10.3,10.3,0,0,0,3.41-.609V14.647l-.029.012a8.4,8.4,0,0,1-3.86.723c-.372-.025-.747-.041-1.135-.053-.653-.016-1.327-.012-2.042.012-.984.033-2.038.11-3.19.229l-1.258.131a1.194,1.194,0,0,1-.327-2.365l4.762-.825a.015.015,0,0,0,.012,0,3,3,0,0,0,2.042-1.372,3.047,3.047,0,0,0-2.573-4.668H42.017l8.251-4.24Zm-7.6,3.946a.973.973,0,0,1,.531.151,1.007,1.007,0,0,1,0,1.7.979.979,0,0,1-.359.135l-4.762.825A3.236,3.236,0,0,0,45,17.747a2.964,2.964,0,0,0,.327-.016s3.325-.31,4.244-.343v2.251H28.742V8.508Z" transform="translate(-15.795)" fill="#1a6eff"/>
    <rect id="Rectangle_484" data-name="Rectangle 484" width="2.042" height="2.042" transform="translate(22.474 13.052)" fill="#1a6eff"/>
  </g>
</svg>
