<svg xmlns="http://www.w3.org/2000/svg" width="512.076" height="512.039" viewBox="0 0 512.076 512.039">
  <g id="Group_2" data-name="Group 2" transform="translate(-1 -1.018)">
    <g id="Group_1" data-name="Group 1">
      <path id="Path_1" data-name="Path 1" d="M499.639,396.039l-103.646-69.12a30.251,30.251,0,0,0-40.508,6.579l-30.191,38.818a12.9,12.9,0,0,1-16.546,3.482l-5.743-3.166c-19.038-10.377-42.726-23.3-90.453-71.04s-60.672-71.45-71.049-90.453l-3.149-5.743a12.92,12.92,0,0,1,3.413-16.606l38.792-30.182a30.268,30.268,0,0,0,6.588-40.508L118.027,14.454A30.094,30.094,0,0,0,77.461,5.323L34.12,31.358A61.136,61.136,0,0,0,6.242,67.539C-9.365,124.4,2.376,222.547,146.948,367.136c115,114.995,200.619,145.92,259.465,145.92a151.182,151.182,0,0,0,40.107-5.239A61.079,61.079,0,0,0,482.7,479.939l26.061-43.315A30.1,30.1,0,0,0,499.639,396.039Zm-5.581,31.829-26,43.341a44.1,44.1,0,0,1-26.027,20.173c-52.5,14.413-144.213,2.475-283.008-136.32S8.29,124.559,22.7,72.054A44.169,44.169,0,0,1,42.9,45.993l43.341-26a13.056,13.056,0,0,1,17.6,3.959l37.547,56.371,31.514,47.266a13.134,13.134,0,0,1-2.85,17.579l-38.8,30.182a29.866,29.866,0,0,0-7.91,38.332l3.081,5.6c10.906,20,24.465,44.885,73.967,94.379s74.377,63.053,94.37,73.958l5.606,3.089A29.867,29.867,0,0,0,338.7,382.8l30.182-38.8a13.141,13.141,0,0,1,17.579-2.85L490.1,410.264A13.047,13.047,0,0,1,494.058,427.868Z" fill="#007bff"/>
      <path id="Path_2" data-name="Path 2" d="M291.161,86.39A145.23,145.23,0,0,1,436.228,231.457a8.533,8.533,0,1,0,17.066,0A162.311,162.311,0,0,0,291.161,69.324a8.533,8.533,0,0,0,0,17.066Z" fill="#007bff"/>
      <path id="Path_3" data-name="Path 3" d="M291.161,137.59a93.978,93.978,0,0,1,93.867,93.867,8.533,8.533,0,1,0,17.066,0A111.061,111.061,0,0,0,291.161,120.524a8.533,8.533,0,0,0,0,17.066Z" fill="#007bff"/>
      <path id="Path_4" data-name="Path 4" d="M291.161,188.79a42.719,42.719,0,0,1,42.667,42.667,8.533,8.533,0,1,0,17.066,0,59.8,59.8,0,0,0-59.733-59.733,8.533,8.533,0,1,0,0,17.066Z" fill="#007bff"/>
    </g>
  </g>
</svg>
