<svg id="Finest_Quality" data-name="Finest Quality" xmlns="http://www.w3.org/2000/svg" width="82.872" height="82.872" viewBox="0 0 82.872 82.872">
  <rect id="Rectangle_670" data-name="Rectangle 670" width="82.872" height="82.872" rx="10" fill="#f6f6f6"/>
  <g id="noun_materials_308312" transform="translate(24.862 20.521)">
    <circle id="Ellipse_47" data-name="Ellipse 47" cx="1.222" cy="1.222" r="1.222" transform="translate(10.505 25.308)"/>
    <path id="Path_111" data-name="Path 111" d="M47.181,5.977H19.789V19.626H6.615V47.019H34.008V33.37H47.182V5.977Zm-2.132,5.836L34.008,22.854V19.626h-4.06L41.369,8.2l-.1-.1h3.775v3.7ZM31.876,33.3c-1.83-.308-4.671-.654-5.694,2.788a22.527,22.527,0,0,1-3.214,5.649,18.178,18.178,0,0,0-1.946,3.147H17.645a7.329,7.329,0,0,1,1.53-4.515,7.222,7.222,0,0,1,1.608-1.354,7.321,7.321,0,0,0,3.638-5.53,10.57,10.57,0,0,0-.716-6.045,10.748,10.748,0,0,1-.763-5.683h3.123c.088.435.163.886.242,1.363.447,2.694,1,6.047,4.585,7.89.2.1.331.175.414.222a1.525,1.525,0,0,0,.57.373v1.7Zm-17.33,1.9a9.771,9.771,0,0,1,.211-3.249,9.044,9.044,0,0,1,1.459-2.942,12.235,12.235,0,0,0,2.368-7.249H20.8a12.789,12.789,0,0,0,.9,6.419,8.552,8.552,0,0,1,.611,4.981,5.249,5.249,0,0,1-2.744,4.105,8.985,8.985,0,0,0-2.061,1.776,9.443,9.443,0,0,0-2,5.847H13.284A25.96,25.96,0,0,0,14.546,35.2Zm17.33-6.079-.008,0c-2.628-1.352-3.031-3.776-3.457-6.343-.056-.334-.114-.675-.177-1.014h3.641Zm-9.955-11.38L31.55,8.11h6.9L26.932,19.626H21.921Zm6.613-9.629-6.613,6.613V8.109ZM12.061,21.758a33.305,33.305,0,0,1-1.991,5.5c-.434,1.033-.887,2.111-1.322,3.228V21.758ZM8.748,38.034a45.516,45.516,0,0,1,3.288-9.949,30.364,30.364,0,0,0,2.189-6.326H16.45a10.122,10.122,0,0,1-2.009,6.067,11.047,11.047,0,0,0-1.748,3.588,11.768,11.768,0,0,0-.277,3.89c.095,1.918.212,4.294-1.352,9.583H8.748V38.034Zm14.672,6.852c.366-.6.875-1.323,1.3-1.924A23.975,23.975,0,0,0,28.226,36.7c.48-1.615,1.343-1.627,3.508-1.256l.142.024v9.421ZM34.008,25.87,45.049,14.829v7.187l-9.221,9.221h-1.82V25.87Zm4.835,5.367,6.206-6.206v6.206Z" transform="translate(-6.615 -5.977)"/>
  </g>
</svg>
