<svg id="Free_Shipping" data-name="Free Shipping" xmlns="http://www.w3.org/2000/svg" width="82.872" height="82.872" viewBox="0 0 82.872 82.872">
  <rect id="Rectangle_667" data-name="Rectangle 667" width="82.872" height="82.872" rx="10" fill="#f6f6f6"/>
  <g id="Group_181" data-name="Group 181" transform="translate(19.124 27.624)">
    <path id="Path_189" data-name="Path 189" d="M53.149,32.35l-2.017-4.675a4.616,4.616,0,0,0-4.262-2.8H43.616V23.687A1.79,1.79,0,0,0,41.828,21.9H19.1A1.183,1.183,0,0,0,17.9,23.092,1.213,1.213,0,0,0,19.1,24.283H41.141v8.8a1.956,1.956,0,0,0,1.971,1.971H51.04V40.6a.411.411,0,0,1-.412.412H49.161a4.41,4.41,0,0,0-3.8-2.2,4.509,4.509,0,0,0-3.8,2.2H29.316a4.41,4.41,0,0,0-3.8-2.2,4.509,4.509,0,0,0-3.8,2.2H17.492a1.192,1.192,0,0,0,0,2.383h3.621a4.4,4.4,0,0,0,8.8,0H40.957a4.4,4.4,0,0,0,8.8,0h.962a2.807,2.807,0,0,0,2.8-2.8V34.183A5.226,5.226,0,0,0,53.149,32.35ZM25.512,45.228a2.017,2.017,0,1,1,2.017-2.017A2.034,2.034,0,0,1,25.512,45.228Zm19.845,0a2.017,2.017,0,1,1,2.017-2.017A2.034,2.034,0,0,1,45.357,45.228ZM43.57,27.308h3.254a2.147,2.147,0,0,1,2.017,1.329l1.742,4.033H43.57Z" transform="translate(-9.975 -21.9)"/>
    <path id="Path_190" data-name="Path 190" d="M13.492,35.183h8.433a1.192,1.192,0,1,0,0-2.383H13.492A1.183,1.183,0,0,0,12.3,33.992,1.213,1.213,0,0,0,13.492,35.183Z" transform="translate(-7.809 -27.804)"/>
    <path id="Path_191" data-name="Path 191" d="M8.592,45.183h8.433a1.192,1.192,0,1,0,0-2.383H8.592A1.183,1.183,0,0,0,7.4,43.992,1.213,1.213,0,0,0,8.592,45.183Z" transform="translate(-5.154 -33.221)"/>
    <path id="Path_192" data-name="Path 192" d="M13.362,53.992A1.183,1.183,0,0,0,12.17,52.8H3.692a1.192,1.192,0,1,0,0,2.383h8.433A1.167,1.167,0,0,0,13.362,53.992Z" transform="translate(-2.5 -38.638)"/>
  </g>
</svg>
