<svg id="Money" xmlns="http://www.w3.org/2000/svg" width="82.872" height="82.872" viewBox="0 0 82.872 82.872">
  <rect id="Rectangle_669" data-name="Rectangle 669" width="82.872" height="82.872" rx="10" transform="translate(0)" fill="#f6f6f6"/>
  <g id="noun_guarantee_2519048" transform="translate(24.862 22.952)">
    <path id="Path_91" data-name="Path 91" d="M38.417,8.672,22.522,4.05a1.272,1.272,0,0,0-.725,0h0L5.9,8.672A1.272,1.272,0,0,0,5,9.893V23.772C5,35.852,21.168,40.029,21.861,40.2a1.245,1.245,0,0,0,.636-.006c.992-.248,16.836-4.457,16.836-16.422V9.893a1.272,1.272,0,0,0-.916-1.221Zm-1.628,15.1c0,9.283-12.487,13.288-14.623,13.879C20.03,37.06,7.543,33.074,7.543,23.772V10.853l14.623-4.26L36.79,10.846Z" transform="translate(-5 -3.997)"/>
    <path id="Path_92" data-name="Path 92" d="M28.192,19.272V20.6a3.815,3.815,0,0,0,.636,7.572h1.907a1.272,1.272,0,1,1,0,2.543H26.92a1.272,1.272,0,0,0,0,2.543h1.272v1.272a1.272,1.272,0,0,0,2.543,0V33.259a3.815,3.815,0,0,0,0-7.629H28.827a1.272,1.272,0,0,1,0-2.543h3.815a1.272,1.272,0,1,0,0-2.543H30.735V19.272a1.272,1.272,0,1,0-2.543,0Z" transform="translate(-12.297 -9.097)"/>
  </g>
</svg>
