<svg xmlns="http://www.w3.org/2000/svg" viewBox="0 0 891.56 300.03"><defs><style>.cls-1{fill:#c10c2a;}.cls-2{fill:#104282;}</style></defs><title>Navega-FullColor</title><g id="Layer_9" data-name="Layer 9"><path d="M271,636.27V534.37l11.34.14,49.57,71.67V534.51h14.54V636.27H334.82l-49.13-71.09v71.09Z" transform="translate(-97.89 -464.52)"/><path d="M412.49,606.32H376c-3.92,9.3-9,21.52-12.21,29.95H347.95L388.8,533.21h10.76L440.4,636.27H424.7Zm-31-13.81h25.29l-12.51-35.9Z" transform="translate(-97.89 -464.52)"/><path d="M499.89,534.65h15.7L474.75,636.56H464L423.14,534.65h16l30.24,76Z" transform="translate(-97.89 -464.52)"/><path d="M533.23,621.59h47.25v14.68H518.41V534.65h61.92v14.69h-47.1V578h46.08V592.8H533.23Z" transform="translate(-97.89 -464.52)"/><path d="M667.88,571c-4.07-16.43-19.77-22.39-32.71-22.39-19.91,0-35.33,15.56-35.33,36.93s15.41,37.36,35.33,37.36c12.51,0,25.87-5.81,32-20.64H629.5V587.57h54.8c-.73,8.57-1.45,14.24-2.76,17.59V605c-7,19.47-27.91,32-46.38,32-28.49,0-50-21.51-50-51.45s22-51.61,50-51.61c19.48,0,43,10,48.41,37.07Z" transform="translate(-97.89 -464.52)"/><path d="M745.41,606.32H708.92c-3.92,9.3-9,21.52-12.21,29.95H680.87l40.85-103.06h10.75l40.85,103.06h-15.7Zm-31-13.81h25.29l-12.51-35.9Z" transform="translate(-97.89 -464.52)"/><path d="M846.22,584.66h17.15c12.36,0,18.46-8.87,18.46-17.73s-6.1-17.59-18.46-17.59H840.84v86.93H826.31V534.51h37.07c22.09,0,33.14,16.29,33.14,32.42,0,14.39-8.87,28.05-26.31,31.11l32.13,38.23h-19l-37.07-44.62Z" transform="translate(-97.89 -464.52)"/><path d="M939.45,534.65c33.29,0,50,25.45,50,50.88s-16.71,50.73-50,50.73H903V534.65Zm0,86.94c23.55,0,35.47-18,35.47-36.05s-11.92-36.2-35.47-36.2H917.64v72.25Z" transform="translate(-97.89 -464.52)"/><path class="cls-1" d="M259.93,464.52c-69.8,23.92-116,86.32-114.57,151,2,91.3,98.42,163.34,186.06,146.66,57.82-11,105.71-59.48,122.75-123.4-2.72,8.64-25.44,77-93.84,101.34-64.27,22.92-142.59-2.33-177.51-61.93-37.33-63.72-5.05-132.54-1.94-138.9C204.72,490.54,247.25,470.07,259.93,464.52Z" transform="translate(-97.89 -464.52)"/><path class="cls-2" d="M133.6,568.76c-1,3.36-2.23,6.6-3.21,9.92s-2.18,6.47-3.15,9.72c-1.95,6.49-3.92,12.82-5.52,19.12a182.92,182.92,0,0,0-4,18.44c-.45,3-.78,5.9-1,8.74s-.15,5.54,0,8.06a27.7,27.7,0,0,0,3.05,11.86,19.8,19.8,0,0,0,2.7,3.2,20.63,20.63,0,0,0,3.64,2.48c5.95,3.22,16.85,5.21,28.34,5.44,5.78.3,11.87,0,18-.24,3.1-.19,6.2-.31,9.34-.58l9.47-.84c12.71-1.19,25.66-2.85,38.78-4.46,26.3-3.22,53.05-7,81.26-7.93l.75,2.2c-12.77,4.46-25.55,8.91-38.49,12.92s-26,7.67-39.16,10.88-26.45,6.06-39.89,8.15A231.08,231.08,0,0,1,153.73,689a112.74,112.74,0,0,1-20.52-2.47,58.32,58.32,0,0,1-19.41-7.91,39.5,39.5,0,0,1-7.91-7.23,36.52,36.52,0,0,1-5.36-9.31,47.6,47.6,0,0,1-2.4-20.86A90.78,90.78,0,0,1,102.55,621a152.92,152.92,0,0,1,7.8-19,232.85,232.85,0,0,1,21.39-34.71Z" transform="translate(-97.89 -464.52)"/><path class="cls-2" d="M293.63,643.58a98.71,98.71,0,0,1,15.1-.27c5,.26,9.91.77,14.8,1.49l5.21.77-2.49,4.83a176.87,176.87,0,0,1-9.58,16.39c-1.75,2.65-3.63,5.23-5.58,7.77a76.36,76.36,0,0,1-6.35,7.35,76.34,76.34,0,0,1,2.72-9.32c1.08-3,2.22-6,3.5-8.9a176.87,176.87,0,0,1,8.57-16.94l2.72,5.6c-4.86-.94-9.68-2.09-14.46-3.5A98.68,98.68,0,0,1,293.63,643.58Z" transform="translate(-97.89 -464.52)"/></g></svg>