<svg id="Group_209" data-name="Group 209" xmlns="http://www.w3.org/2000/svg" width="47" height="47" viewBox="0 0 47 47">
  <rect id="Rectangle_661" data-name="Rectangle 661" width="47" height="47" rx="10" fill="#e1ecff"/>
  <g id="noun_Happy_1563582" transform="translate(13.6 12.6)">
    <path id="Path_193" data-name="Path 193" d="M24.6,31.733a.867.867,0,0,1,.867.867.867.867,0,0,0,1.733,0,2.6,2.6,0,0,0-5.2,0,.867.867,0,1,0,1.733,0,.867.867,0,0,1,.867-.867Z" transform="translate(-17.667 -23.933)" fill="#1a6eff"/>
    <path id="Path_194" data-name="Path 194" d="M56.6,30A2.6,2.6,0,0,0,54,32.6a.867.867,0,0,0,1.733,0,.867.867,0,1,1,1.733,0,.867.867,0,0,0,1.733,0A2.6,2.6,0,0,0,56.6,30Z" transform="translate(-42.733 -23.933)" fill="#1a6eff"/>
    <path id="Path_195" data-name="Path 195" d="M12.4,2A10.4,10.4,0,1,0,22.8,12.4,10.4,10.4,0,0,0,12.4,2Zm0,19.067A8.667,8.667,0,1,1,21.067,12.4,8.667,8.667,0,0,1,12.4,21.067Z" transform="translate(-2 -2)" fill="#1a6eff"/>
    <path id="Path_196" data-name="Path 196" d="M37.185,58.252l-.507.509a3.4,3.4,0,0,1-4.693,0l-.507-.509a.867.867,0,1,0-1.226,1.226l.509.507a5.048,5.048,0,0,0,7.15,0l.509-.507a.867.867,0,1,0-1.226-1.226Z" transform="translate(-23.932 -45.865)" fill="#1a6eff"/>
  </g>
</svg>
