<svg xmlns="http://www.w3.org/2000/svg" width="207.242" height="89.825" viewBox="0 0 207.242 89.825">
  <g id="white-logo" transform="translate(-308.67 -209)">
    <path id="Path_326" data-name="Path 326" d="M332.434,283.3l10.87-22.379L330.261,239.69,308.67,272.811Z" transform="translate(0 -26.126)" fill="#fff"/>
    <path id="Path_327" data-name="Path 327" d="M559.948,239.163l19.64-17.178L548.186,209l-6.636,26.247Z" transform="translate(-198.247)" fill="#fff"/>
    <path id="Path_328" data-name="Path 328" d="M383.665,552.714l-3.3,22.748-26.64-19.809,16.966-20Z" transform="translate(-38.359 -278.072)" fill="#fff"/>
    <path id="Path_329" data-name="Path 329" d="M724.334,652.065c-82.116,4.246-124.014,23.487-124.014,23.487l2.023-24.012Z" transform="translate(-248.277 -376.727)" fill="#fff"/>
    <path id="Path_330" data-name="Path 330" d="M555,482.155c0-5.58,4.225-9.345,9.78-9.345a8.336,8.336,0,0,1,7.882,4.85l-4.015,1.895a4.333,4.333,0,0,0-3.867-2.626,5.233,5.233,0,0,0,0,10.458,4.322,4.322,0,0,0,3.867-2.629l4.015,1.9a8.392,8.392,0,0,1-7.882,4.848C559.228,491.5,555,487.71,555,482.155Z" transform="translate(-209.696 -224.577)" fill="#fff"/>
    <path id="Path_331" data-name="Path 331" d="M681.13,482.155c0-5.5,4.145-9.345,9.667-9.345s9.647,3.846,9.647,9.345-4.118,9.345-9.644,9.345S681.13,487.653,681.13,482.155Zm14.574,0c0-2.951-1.923-5.227-4.908-5.227-3.007,0-4.93,2.277-4.93,5.227,0,2.927,1.923,5.23,4.93,5.23,2.983,0,4.906-2.3,4.906-5.23Z" transform="translate(-317.069 -224.577)" fill="#fff"/>
    <path id="Path_332" data-name="Path 332" d="M839.219,492.879l-7.638-10.456v10.458H826.92V474.81h4.795l7.314,9.943V474.81h4.688v18.069Z" transform="translate(-441.177 -226.279)" fill="#fff"/>
    <path id="Path_333" data-name="Path 333" d="M961.79,492.879V474.81h13.246v4.064h-8.587v2.817h8.4v4.063h-8.4v3.064h8.587v4.063Z" transform="translate(-555.99 -226.279)" fill="#fff"/>
    <path id="Path_334" data-name="Path 334" d="M1062.94,482.155c0-5.58,4.225-9.345,9.78-9.345a8.336,8.336,0,0,1,7.882,4.85l-4.015,1.895a4.333,4.333,0,0,0-3.867-2.626,5.233,5.233,0,0,0,0,10.458,4.322,4.322,0,0,0,3.867-2.629l4.015,1.9a8.392,8.392,0,0,1-7.882,4.848C1067.165,491.5,1062.94,487.71,1062.94,482.155Z" transform="translate(-642.097 -224.577)" fill="#fff"/>
    <path id="Path_335" data-name="Path 335" d="M1193.377,492.879v-14h-5.067V474.81h14.763v4.064h-5.039v14Z" transform="translate(-748.822 -226.279)" fill="#fff"/>
    <path id="Path_336" data-name="Path 336" d="M1292.572,492.879l-.892-2.6h-7.125l-.892,2.6h-5.282l6.8-18.069h5.85l6.826,18.069Zm-4.47-13.463-2.3,6.8h4.61Z" transform="translate(-825.497 -226.279)" fill="#fff"/>
    <path id="Path_337" data-name="Path 337" d="M1475.071,492.879l-3.034-6.068h-2.379v6.068H1465V474.81h9.048c4.015,0,6.283,2.656,6.283,6.016a5.476,5.476,0,0,1-3.6,5.418l3.685,6.637Zm.515-12.08a2.019,2.019,0,0,0-2.249-1.923h-3.685v3.867h3.685a2,2,0,0,0,2.25-1.945Z" transform="translate(-984.364 -226.279)" fill="#fff"/>
    <path id="Path_338" data-name="Path 338" d="M1585.44,492.879V474.81h7.585c5.688,0,9.78,3.42,9.78,9.021s-4.09,9.048-9.751,9.048Zm12.6-9.048a4.626,4.626,0,0,0-4.984-4.957H1590.1v9.943h2.925a4.8,4.8,0,0,0,5.009-4.986Z" transform="translate(-1086.892 -226.279)" fill="#fff"/>
  </g>
</svg>
